<?xml version="1.0" encoding="UTF-8"?>
<!DOCTYPE svg PUBLIC "-//W3C//DTD SVG 1.1//EN" "http://www.w3.org/Graphics/SVG/1.1/DTD/svg11.dtd">
<!-- Creator: CorelDRAW -->
<svg xmlns="http://www.w3.org/2000/svg" xml:space="preserve" width="25.4112mm" height="25.4112mm" style="shape-rendering:geometricPrecision; text-rendering:geometricPrecision; image-rendering:optimizeQuality; fill-rule:evenodd; clip-rule:evenodd" viewBox="0 0 5.6848 5.6848" xmlns:xlink="http://www.w3.org/1999/xlink">
 <defs>
  <style type="text/css">
   <![CDATA[
    .str0 {stroke:#4D4948;stroke-width:0.0789033}
    .str1 {stroke:#007CC3;stroke-width:0.157829}
    .str3 {stroke:#8F5444;stroke-width:0.157829;stroke-linecap:round}
    .str2 {stroke:#E77817;stroke-width:0.31568;stroke-linecap:round}
    .fil2 {fill:none}
    .fil0 {fill:#4D4948}
    .fil3 {fill:#C0A062}
    .fil1 {fill:#FFFCC8}
    .fil4 {fill:#3771C8}
    .fil6 {fill:#AACCFF}
    .fil7 {fill:#FF6600}
    .fil5 {fill:#FF7F2A}
   ]]>
  </style>
 </defs>
 <g id="Diagram">
  <metadata id="CorelCorpID_0Corel-Layer"/>
  <g id="_49100152">
   <path id="_48356016" class="fil0 str0" d="M1.50012 0.605276l2.68455 0c0.492883,0 0.894849,0.401966 0.894849,0.894849l0 2.68455c0,0.492883 -0.401966,0.894849 -0.894849,0.894849l-2.68455 0c-0.492883,0 -0.894849,-0.401966 -0.894849,-0.894849l0 -2.68455c0,-0.492883 0.401966,-0.894849 0.894849,-0.894849z"/>
   <path id="_48354920" class="fil1 str1" d="M1.67909 1.09744l2.32661 0c0.320378,0 0.581652,0.261273 0.581652,0.581652l0 2.32661c0,0.320378 -0.261273,0.581652 -0.581652,0.581652l-2.32661 0c-0.320378,0 -0.581652,-0.261273 -0.581652,-0.581652l0 -2.32661c0,-0.320378 0.261273,-0.581652 0.581652,-0.581652z"/>
   <line id="_48354048" class="fil2 str2" x1="0.605276" y1="3.73725" x2="0.157851" y2="3.73725"/>
   <line id="_48353176" class="fil2 str2" x1="0.605276" y1="3.28946" x2="0.157851" y2="3.28946"/>
   <line id="_48352304" class="fil2 str2" x1="0.605276" y1="2.39497" x2="0.157851" y2="2.39497"/>
   <line id="_48351432" class="fil2 str2" x1="0.605276" y1="2.84204" x2="0.157851" y2="2.84204"/>
   <line id="_48350424" class="fil2 str2" x1="0.605276" y1="1.94719" x2="0.157851" y2="1.94719"/>
   <line id="_48349552" class="fil2 str2" x1="0.605276" y1="1.49977" x2="0.157851" y2="1.49977"/>
   <line id="_48348648" class="fil2 str2" x1="0.605276" y1="4.18449" x2="0.157851" y2="4.18449"/>
   <line id="_48347776" class="fil2 str2" x1="5.52694" y1="3.73725" x2="5.07952" y2="3.73725"/>
   <line id="_48346904" class="fil2 str2" x1="5.52694" y1="3.28946" x2="5.07952" y2="3.28946"/>
   <line id="_48346032" class="fil2 str2" x1="5.52694" y1="2.39497" x2="5.07952" y2="2.39497"/>
   <line id="_48345160" class="fil2 str2" x1="5.52694" y1="2.84204" x2="5.07952" y2="2.84204"/>
   <line id="_48344288" class="fil2 str2" x1="5.52694" y1="1.94719" x2="5.07952" y2="1.94719"/>
   <line id="_48343416" class="fil2 str2" x1="5.52694" y1="1.49977" x2="5.07952" y2="1.49977"/>
   <line id="_48342544" class="fil2 str2" x1="5.52694" y1="4.18449" x2="5.07952" y2="4.18449"/>
   <line id="_48341536" class="fil2 str2" x1="1.94755" y1="5.52694" x2="1.94755" y2="5.07952"/>
   <line id="_48340632" class="fil2 str2" x1="2.39533" y1="5.52694" x2="2.39533" y2="5.07952"/>
   <line id="_48339760" class="fil2 str2" x1="3.28982" y1="5.52694" x2="3.28982" y2="5.07952"/>
   <line id="_48338888" class="fil2 str2" x1="2.84276" y1="5.52694" x2="2.84276" y2="5.07952"/>
   <line id="_48338016" class="fil2 str2" x1="3.7376" y1="5.52694" x2="3.7376" y2="5.07952"/>
   <line id="_48337144" class="fil2 str2" x1="4.18503" y1="5.52694" x2="4.18503" y2="5.07952"/>
   <line id="_48336272" class="fil2 str2" x1="1.5003" y1="5.52694" x2="1.5003" y2="5.07952"/>
   <line id="_48335400" class="fil2 str2" x1="1.94737" y1="0.605276" x2="1.94737" y2="0.157851"/>
   <line id="_48334528" class="fil2 str2" x1="2.39515" y1="0.605276" x2="2.39515" y2="0.157851"/>
   <line id="_48333656" class="fil2 str2" x1="3.28964" y1="0.605276" x2="3.28964" y2="0.157851"/>
   <line id="_48332616" class="fil2 str2" x1="2.84258" y1="0.605276" x2="2.84258" y2="0.157851"/>
   <line id="_48331744" class="fil2 str2" x1="3.73743" y1="0.605276" x2="3.73743" y2="0.157851"/>
   <line id="_48330872" class="fil2 str2" x1="4.18485" y1="0.605276" x2="4.18485" y2="0.157851"/>
   <line id="_48330000" class="fil2 str2" x1="1.50012" y1="0.605276" x2="1.50012" y2="0.157851"/>
   <g>
    <path id="_91814912" class="fil3" d="M1.91187 2.83334l1.96867 0c0.135547,0 0.246083,0.0879189 0.246083,0.195748l0 1.17449c0,0.107807 -0.110536,0.195748 -0.246083,0.195748l-1.96867 0c-0.135547,0 -0.246083,-0.0879413 -0.246083,-0.195748l0 -1.17449c0,-0.107829 0.110536,-0.195748 0.246083,-0.195748z"/>
    <line id="_91020792" class="fil2 str3" x1="1.66578" y1="3.61629" x2="4.12662" y2="3.61629"/>
    <line id="_92590600" class="fil2 str3" x1="2.89616" y1="4.39932" x2="2.89616" y2="2.83334"/>
   </g>
   <g>
    <polygon id="_47948272" class="fil4" points="4.12592,2.13737 4.17154,2.12876 4.21724,2.11025 4.21724,2.07654 4.17154,2.058 4.12592,2.04941 4.12176,2.00439 4.16501,1.98755 4.20655,1.96093 4.20033,1.9278 4.15199,1.91797 4.10559,1.91791 4.09322,1.87442 4.13264,1.84992 4.16856,1.81614 4.15637,1.78469 4.10707,1.78395 4.06143,1.79238 4.04127,1.75191 4.0755,1.72059 4.10463,1.68077 4.08689,1.65211 4.03825,1.66041 3.99496,1.6771 3.96769,1.64102 3.99559,1.60395 4.01689,1.55948 3.99418,1.53455 3.94792,1.55165 3.90841,1.57601 3.87501,1.54556 3.89561,1.50397 3.90839,1.45632 3.88147,1.43601 3.83913,1.46133 3.80479,1.49252 3.76633,1.46872 3.77895,1.42408 3.78275,1.37489 3.75255,1.35988 3.71559,1.39254 3.68756,1.42952 3.64541,1.41317 3.6496,1.36697 3.64429,1.31793 3.61186,1.30872 3.58152,1.3476 3.56076,1.3891 3.51631,1.3808 3.51195,1.3346 3.49772,1.28737 3.46414,1.28426 3.44148,1.32807 3.4287,1.37268 3.38347,1.37268 3.37069,1.32807 3.34803,1.28426 3.31445,1.28737 3.30022,1.3346 3.29586,1.3808 3.25141,1.3891 3.23065,1.3476 3.20034,1.30872 3.16788,1.31793 3.16257,1.36697 3.16678,1.41317 3.12461,1.42952 3.09658,1.39254 3.0596,1.35988 3.02942,1.37489 3.03322,1.42408 3.04582,1.46872 3.00739,1.49252 2.97305,1.46133 2.9307,1.43601 2.90381,1.45632 2.91656,1.50397 2.93716,1.54556 2.90376,1.57601 2.86425,1.55165 2.81799,1.53455 2.79528,1.55948 2.81658,1.60395 2.84448,1.64102 2.81721,1.6771 2.77392,1.66041 2.72531,1.65211 2.70754,1.68077 2.73667,1.72059 2.7709,1.75191 2.75074,1.79238 2.70511,1.78395 2.6558,1.78469 2.64361,1.81614 2.67954,1.84992 2.71895,1.87442 2.70658,1.91791 2.66018,1.91797 2.61184,1.9278 2.60562,1.96093 2.64716,1.98755 2.69041,2.00439 2.68625,2.04941 2.64063,2.058 2.59493,2.07654 2.59493,2.11025 2.64063,2.12876 2.68625,2.13737 2.69041,2.1824 2.64716,2.19923 2.60562,2.22585 2.61184,2.25898 2.66018,2.2688 2.70658,2.26887 2.71895,2.31236 2.67954,2.33685 2.64361,2.37063 2.6558,2.40206 2.70511,2.40285 2.75074,2.39439 2.7709,2.43486 2.73667,2.46618 2.70754,2.506 2.72531,2.53466 2.77392,2.52636 2.81721,2.50967 2.84448,2.54576 2.81658,2.58282 2.79528,2.62732 2.81799,2.65224 2.86425,2.63513 2.90376,2.61079 2.93716,2.64124 2.91656,2.6828 2.90381,2.73043 2.9307,2.75077 2.97305,2.72544 3.00739,2.69426 3.04582,2.71806 3.03322,2.76269 3.02942,2.81186 3.0596,2.82689 3.09658,2.79423 3.12461,2.75728 3.16678,2.77361 3.16257,2.8198 3.16788,2.86884 3.20034,2.87806 3.23065,2.83918 3.25141,2.79768 3.29586,2.80598 3.30022,2.85217 3.31445,2.8994 3.34803,2.90251 3.37069,2.85871 3.38347,2.8141 3.4287,2.8141 3.44148,2.85871 3.46414,2.90251 3.49772,2.8994 3.51195,2.85217 3.51631,2.80598 3.56076,2.79768 3.58152,2.83918 3.61186,2.87806 3.64429,2.86884 3.6496,2.8198 3.64541,2.77361 3.68756,2.75728 3.71559,2.79423 3.75255,2.82689 3.78275,2.81186 3.77895,2.76269 3.76633,2.71806 3.80479,2.69426 3.83913,2.72544 3.88147,2.75077 3.90839,2.73043 3.89561,2.6828 3.87501,2.64124 3.90841,2.61079 3.94792,2.63513 3.99418,2.65224 4.01689,2.62732 3.99559,2.58282 3.96769,2.54576 3.99496,2.50967 4.03825,2.52636 4.08689,2.53466 4.10463,2.506 4.0755,2.46618 4.04127,2.43486 4.06143,2.39439 4.10707,2.40285 4.15637,2.40206 4.16856,2.37063 4.13264,2.33685 4.09322,2.31236 4.10559,2.26887 4.15199,2.2688 4.20033,2.25898 4.20655,2.22585 4.16501,2.19923 4.12176,2.1824 "/>
    <path id="_92569416" class="fil5" d="M3.63438 2.09339c0,-0.126062 -0.102214,-0.228254 -0.228298,-0.228254 -0.126084,0 -0.228298,0.102192 -0.228298,0.228254 0,0.126062 0.102214,0.228276 0.228298,0.228276 0.126084,0 0.228298,-0.102214 0.228298,-0.228276z"/>
    <polygon id="_92576432" class="fil6" points="2.77486,2.88108 2.78672,2.88202 2.81828,2.87685 2.86215,2.8585 2.86215,2.82774 2.81828,2.8094 2.78672,2.80423 2.77486,2.80517 2.76864,2.75781 2.78032,2.75566 2.80947,2.74251 2.8471,2.71341 2.83913,2.6837 2.792,2.67732 2.76018,2.6805 2.74898,2.68448 2.7307,2.64036 2.74144,2.63526 2.76618,2.61499 2.79499,2.57716 2.77962,2.55052 2.73244,2.55656 2.70251,2.56788 2.69273,2.57461 2.66365,2.53672 2.67269,2.52902 2.69137,2.50305 2.7094,2.45904 2.68766,2.43728 2.64363,2.45535 2.61768,2.47401 2.60996,2.48305 2.57206,2.45397 2.57882,2.44419 2.5901,2.41428 2.59616,2.36708 2.56951,2.35171 2.53168,2.38052 2.51142,2.40529 2.50631,2.41602 2.46218,2.39772 2.46616,2.38656 2.46934,2.35473 2.46296,2.30759 2.43325,2.29963 2.40417,2.33726 2.39099,2.36641 2.38884,2.37808 2.34146,2.37184 2.34242,2.36001 2.33726,2.32844 2.31889,2.28457 2.28815,2.28457 2.26978,2.32844 2.26459,2.36001 2.26556,2.37184 2.2182,2.37808 2.21605,2.36641 2.20287,2.33726 2.17379,2.29963 2.14408,2.30759 2.1377,2.35473 2.14086,2.38656 2.14486,2.39772 2.10072,2.41602 2.09562,2.40529 2.07536,2.38052 2.0375,2.35171 2.01088,2.36708 2.01692,2.41428 2.02824,2.44419 2.03498,2.45397 1.99706,2.48305 1.98936,2.47401 1.96339,2.45535 1.91938,2.43728 1.89762,2.45904 1.91567,2.50305 1.93433,2.52902 1.94339,2.53672 1.91431,2.57461 1.90453,2.56788 1.8746,2.55656 1.82742,2.55052 1.81205,2.57716 1.84086,2.61499 1.8656,2.63526 1.87634,2.64036 1.85804,2.68448 1.84686,2.6805 1.81504,2.67732 1.76789,2.6837 1.75992,2.71341 1.79757,2.74251 1.82672,2.75566 1.8384,2.75781 1.83218,2.80517 1.82032,2.80423 1.78876,2.8094 1.74489,2.82774 1.74489,2.8585 1.78876,2.87685 1.82032,2.88202 1.83218,2.88108 1.8384,2.92844 1.82672,2.93059 1.79757,2.94374 1.75992,2.97284 1.76789,3.00253 1.81504,3.00893 1.84686,3.00575 1.85804,3.00177 1.87634,3.04589 1.8656,3.05099 1.84086,3.07126 1.81205,3.10908 1.82742,3.13573 1.8746,3.12969 1.90453,3.11837 1.91431,3.11161 1.94339,3.14953 1.93433,3.15723 1.91567,3.1832 1.89762,3.22721 1.91938,3.24895 1.96339,3.2309 1.98936,3.21224 1.99706,3.2032 2.03498,3.23228 2.02824,3.24206 2.01692,3.27199 2.01088,3.31915 2.0375,3.33452 2.07536,3.30571 2.09562,3.28096 2.10072,3.27022 2.14486,3.28852 2.14086,3.29971 2.1377,3.33152 2.14408,3.37866 2.17379,3.38662 2.20287,3.34899 2.21605,3.31984 2.2182,3.30817 2.26556,3.31441 2.26459,3.32624 2.26978,3.35781 2.28815,3.40168 2.31889,3.40168 2.33726,3.35781 2.34242,3.32624 2.34146,3.31441 2.38884,3.30817 2.39099,3.31984 2.40417,3.34899 2.43325,3.38662 2.46296,3.37866 2.46934,3.33152 2.46616,3.29971 2.46218,3.28852 2.50631,3.27022 2.51142,3.28096 2.53168,3.30571 2.56951,3.33452 2.59616,3.31915 2.5901,3.27199 2.57882,3.24206 2.57206,3.23228 2.60996,3.2032 2.61768,3.21224 2.64363,3.2309 2.68766,3.24895 2.7094,3.22721 2.69137,3.1832 2.67269,3.15723 2.66365,3.14953 2.69273,3.11161 2.70251,3.11837 2.73244,3.12969 2.77962,3.13573 2.79499,3.10908 2.76618,3.07126 2.74144,3.05099 2.7307,3.04589 2.74898,3.00177 2.76018,3.00575 2.792,3.00893 2.83913,3.00253 2.8471,2.97284 2.80947,2.94374 2.78032,2.93059 2.76864,2.92844 "/>
    <path id="_92401960" class="fil7" d="M2.49139 2.84311c0,-0.103713 -0.0841382,-0.187829 -0.187874,-0.187829 -0.103758,0 -0.187874,0.0841158 -0.187874,0.187829 0,0.103735 0.0841158,0.187851 0.187874,0.187851 0.103735,0 0.187874,-0.0841158 0.187874,-0.187851z"/>
   </g>
  </g>
 </g>
</svg>