<?xml version="1.0" encoding="UTF-8" standalone="no"?>
<!-- Creator: CorelDRAW -->

<svg
   xmlns:dc="http://purl.org/dc/elements/1.1/"
   xmlns:cc="http://creativecommons.org/ns#"
   xmlns:rdf="http://www.w3.org/1999/02/22-rdf-syntax-ns#"
   xmlns:svg="http://www.w3.org/2000/svg"
   xmlns="http://www.w3.org/2000/svg"
   xmlns:sodipodi="http://sodipodi.sourceforge.net/DTD/sodipodi-0.dtd"
   xmlns:inkscape="http://www.inkscape.org/namespaces/inkscape"
   xml:space="preserve"
   width="25.4112mm"
   height="25.4112mm"
   style="shape-rendering:geometricPrecision; text-rendering:geometricPrecision; image-rendering:optimizeQuality; fill-rule:evenodd; clip-rule:evenodd"
   viewBox="0 0 5.6848 5.6848"
   id="svg2"
   version="1.1"
   inkscape:version="0.91 r"
   sodipodi:docname="processor.svg"><metadata
     id="metadata54"><rdf:RDF><cc:Work
         rdf:about=""><dc:format>image/svg+xml</dc:format><dc:type
           rdf:resource="http://purl.org/dc/dcmitype/StillImage" /><dc:title></dc:title></cc:Work></rdf:RDF></metadata><sodipodi:namedview
     pagecolor="#ffffff"
     bordercolor="#666666"
     borderopacity="1"
     objecttolerance="10"
     gridtolerance="10"
     guidetolerance="10"
     inkscape:pageopacity="0"
     inkscape:pageshadow="2"
     inkscape:window-width="1366"
     inkscape:window-height="716"
     id="namedview52"
     showgrid="false"
     inkscape:zoom="2.6210665"
     inkscape:cx="45.019842"
     inkscape:cy="45.019842"
     inkscape:window-x="0"
     inkscape:window-y="282"
     inkscape:window-maximized="1"
     inkscape:current-layer="_49100152" /><defs
     id="defs4"><style
       type="text/css"
       id="style6"><![CDATA[
    .str0 {stroke:#4D4948;stroke-width:0.0789033}
    .str1 {stroke:#007CC3;stroke-width:0.157829}
    .str3 {stroke:#8F5444;stroke-width:0.157829;stroke-linecap:round}
    .str2 {stroke:#E77817;stroke-width:0.31568;stroke-linecap:round}
    .fil2 {fill:none}
    .fil0 {fill:#4D4948}
    .fil3 {fill:#C0A062}
    .fil1 {fill:#FFFCC8}
    .fil4 {fill:#3771C8}
    .fil6 {fill:#AACCFF}
    .fil7 {fill:#FF6600}
    .fil5 {fill:#FF7F2A}
   ]]></style></defs><g
     id="Diagram"><metadata
       id="CorelCorpID_0Corel-Layer" /><g
       id="_49100152"><path
         id="_48356016"
         class="fil0 str0"
         d="M1.50012 0.605276l2.68455 0c0.492883,0 0.894849,0.401966 0.894849,0.894849l0 2.68455c0,0.492883 -0.401966,0.894849 -0.894849,0.894849l-2.68455 0c-0.492883,0 -0.894849,-0.401966 -0.894849,-0.894849l0 -2.68455c0,-0.492883 0.401966,-0.894849 0.894849,-0.894849z" /><path
         id="_48354920"
         class="fil1 str1"
         d="M1.67909 1.09744l2.32661 0c0.320378,0 0.581652,0.261273 0.581652,0.581652l0 2.32661c0,0.320378 -0.261273,0.581652 -0.581652,0.581652l-2.32661 0c-0.320378,0 -0.581652,-0.261273 -0.581652,-0.581652l0 -2.32661c0,-0.320378 0.261273,-0.581652 0.581652,-0.581652z" /><line
         id="_48354048"
         class="fil2 str2"
         x1="0.605276"
         y1="3.73725"
         x2="0.157851"
         y2="3.73725" /><line
         id="_48353176"
         class="fil2 str2"
         x1="0.605276"
         y1="3.28946"
         x2="0.157851"
         y2="3.28946" /><line
         id="_48352304"
         class="fil2 str2"
         x1="0.605276"
         y1="2.39497"
         x2="0.157851"
         y2="2.39497" /><line
         id="_48351432"
         class="fil2 str2"
         x1="0.605276"
         y1="2.84204"
         x2="0.157851"
         y2="2.84204" /><line
         id="_48350424"
         class="fil2 str2"
         x1="0.605276"
         y1="1.94719"
         x2="0.157851"
         y2="1.94719" /><line
         id="_48349552"
         class="fil2 str2"
         x1="0.605276"
         y1="1.49977"
         x2="0.157851"
         y2="1.49977" /><line
         id="_48348648"
         class="fil2 str2"
         x1="0.605276"
         y1="4.18449"
         x2="0.157851"
         y2="4.18449" /><line
         id="_48347776"
         class="fil2 str2"
         x1="5.52694"
         y1="3.73725"
         x2="5.07952"
         y2="3.73725" /><line
         id="_48346904"
         class="fil2 str2"
         x1="5.52694"
         y1="3.28946"
         x2="5.07952"
         y2="3.28946" /><line
         id="_48346032"
         class="fil2 str2"
         x1="5.52694"
         y1="2.39497"
         x2="5.07952"
         y2="2.39497" /><line
         id="_48345160"
         class="fil2 str2"
         x1="5.52694"
         y1="2.84204"
         x2="5.07952"
         y2="2.84204" /><line
         id="_48344288"
         class="fil2 str2"
         x1="5.52694"
         y1="1.94719"
         x2="5.07952"
         y2="1.94719" /><line
         id="_48343416"
         class="fil2 str2"
         x1="5.52694"
         y1="1.49977"
         x2="5.07952"
         y2="1.49977" /><line
         id="_48342544"
         class="fil2 str2"
         x1="5.52694"
         y1="4.18449"
         x2="5.07952"
         y2="4.18449" /><line
         id="_48341536"
         class="fil2 str2"
         x1="1.94755"
         y1="5.52694"
         x2="1.94755"
         y2="5.07952" /><line
         id="_48340632"
         class="fil2 str2"
         x1="2.39533"
         y1="5.52694"
         x2="2.39533"
         y2="5.07952" /><line
         id="_48339760"
         class="fil2 str2"
         x1="3.28982"
         y1="5.52694"
         x2="3.28982"
         y2="5.07952" /><line
         id="_48338888"
         class="fil2 str2"
         x1="2.84276"
         y1="5.52694"
         x2="2.84276"
         y2="5.07952" /><line
         id="_48338016"
         class="fil2 str2"
         x1="3.7376"
         y1="5.52694"
         x2="3.7376"
         y2="5.07952" /><line
         id="_48337144"
         class="fil2 str2"
         x1="4.18503"
         y1="5.52694"
         x2="4.18503"
         y2="5.07952" /><line
         id="_48336272"
         class="fil2 str2"
         x1="1.5003"
         y1="5.52694"
         x2="1.5003"
         y2="5.07952" /><line
         id="_48335400"
         class="fil2 str2"
         x1="1.94737"
         y1="0.605276"
         x2="1.94737"
         y2="0.157851" /><line
         id="_48334528"
         class="fil2 str2"
         x1="2.39515"
         y1="0.605276"
         x2="2.39515"
         y2="0.157851" /><line
         id="_48333656"
         class="fil2 str2"
         x1="3.28964"
         y1="0.605276"
         x2="3.28964"
         y2="0.157851" /><line
         id="_48332616"
         class="fil2 str2"
         x1="2.84258"
         y1="0.605276"
         x2="2.84258"
         y2="0.157851" /><line
         id="_48331744"
         class="fil2 str2"
         x1="3.73743"
         y1="0.605276"
         x2="3.73743"
         y2="0.157851" /><line
         id="_48330872"
         class="fil2 str2"
         x1="4.18485"
         y1="0.605276"
         x2="4.18485"
         y2="0.157851" /><line
         id="_48330000"
         class="fil2 str2"
         x1="1.50012"
         y1="0.605276"
         x2="1.50012"
         y2="0.157851" /></g></g></svg>