G04 #@! TF.FileFunction,Soldermask,Top*
%FSLAX46Y46*%
G04 Gerber Fmt 4.6, Leading zero omitted, Abs format (unit mm)*
G04 Created by KiCad (PCBNEW 0.201508090901+6074~28~ubuntu14.04.1-product) date Di 11 Aug 2015 08:44:00 CEST*
%MOMM*%
G01*
G04 APERTURE LIST*
%ADD10C,0.100000*%
%ADD11C,3.564000*%
%ADD12R,1.300000X0.700000*%
%ADD13R,1.250000X1.500000*%
%ADD14R,1.500000X1.250000*%
%ADD15R,2.600960X1.600200*%
%ADD16R,1.727200X2.032000*%
%ADD17O,1.727200X2.032000*%
%ADD18R,1.500000X0.760000*%
%ADD19R,2.032000X2.032000*%
%ADD20O,2.032000X2.032000*%
%ADD21R,1.300000X1.500000*%
%ADD22R,1.000760X1.800860*%
%ADD23R,0.250000X1.300000*%
%ADD24R,1.300000X0.250000*%
%ADD25R,0.800100X1.800860*%
%ADD26R,1.727200X1.727200*%
%ADD27O,1.727200X1.727200*%
%ADD28R,0.508000X1.143000*%
%ADD29R,5.600700X2.100580*%
%ADD30R,1.900000X1.300000*%
%ADD31R,1.500000X1.300000*%
%ADD32C,2.235200*%
G04 APERTURE END LIST*
D10*
D11*
X179578000Y-112776000D03*
X178562000Y-134874000D03*
D12*
X132054000Y-122090000D03*
X132054000Y-123190000D03*
X132054000Y-124290000D03*
X135154000Y-124290000D03*
X135154000Y-123190000D03*
X135154000Y-122090000D03*
D13*
X145796000Y-93706000D03*
X145796000Y-91206000D03*
X139192000Y-91206000D03*
X139192000Y-93706000D03*
X153924000Y-87610000D03*
X153924000Y-85110000D03*
X149606000Y-86340000D03*
X149606000Y-83840000D03*
D14*
X174772000Y-99060000D03*
X177272000Y-99060000D03*
D13*
X171704000Y-85110000D03*
X171704000Y-87610000D03*
D14*
X177272000Y-93218000D03*
X174772000Y-93218000D03*
X136378000Y-110236000D03*
X133878000Y-110236000D03*
X124948000Y-90678000D03*
X122448000Y-90678000D03*
D15*
X124736860Y-85852000D03*
X121135140Y-85852000D03*
D13*
X163322000Y-131298000D03*
X163322000Y-128798000D03*
D16*
X124460000Y-116840000D03*
D17*
X127000000Y-116840000D03*
X129540000Y-116840000D03*
X132080000Y-116840000D03*
X134620000Y-116840000D03*
X137160000Y-116840000D03*
X139700000Y-116840000D03*
X142240000Y-116840000D03*
X144780000Y-116840000D03*
X147320000Y-116840000D03*
X149860000Y-116840000D03*
X152400000Y-116840000D03*
X154940000Y-116840000D03*
X157480000Y-116840000D03*
X160020000Y-116840000D03*
X162560000Y-116840000D03*
X165100000Y-116840000D03*
X167640000Y-116840000D03*
X170180000Y-116840000D03*
X172720000Y-116840000D03*
X175260000Y-116840000D03*
X177800000Y-116840000D03*
D16*
X144780000Y-121920000D03*
D17*
X147320000Y-121920000D03*
X149860000Y-121920000D03*
X152400000Y-121920000D03*
X154940000Y-121920000D03*
X157480000Y-121920000D03*
X160020000Y-121920000D03*
X162560000Y-121920000D03*
X165100000Y-121920000D03*
X167640000Y-121920000D03*
X170180000Y-121920000D03*
X172720000Y-121920000D03*
X175260000Y-121920000D03*
X177800000Y-121920000D03*
D18*
X179184000Y-107950000D03*
X174384000Y-107950000D03*
X179184000Y-106680000D03*
X174384000Y-106680000D03*
X179184000Y-105410000D03*
X174384000Y-105410000D03*
X179184000Y-104140000D03*
X174384000Y-104140000D03*
X179184000Y-102870000D03*
X174384000Y-102870000D03*
D19*
X178054000Y-129794000D03*
D20*
X178054000Y-127254000D03*
D16*
X135128000Y-80010000D03*
D17*
X137668000Y-80010000D03*
X140208000Y-80010000D03*
X142748000Y-80010000D03*
X145288000Y-80010000D03*
D21*
X167132000Y-108378000D03*
X167132000Y-111078000D03*
X163830000Y-108378000D03*
X163830000Y-111078000D03*
X160020000Y-131398000D03*
X160020000Y-128698000D03*
D22*
X116840000Y-129377440D03*
X116840000Y-137576560D03*
X121340880Y-137576560D03*
X121340880Y-129377440D03*
X127289560Y-129377440D03*
X127289560Y-137576560D03*
X131790440Y-137576560D03*
X131790440Y-129377440D03*
X137449560Y-129377440D03*
X137449560Y-137576560D03*
X141950440Y-137576560D03*
X141950440Y-129377440D03*
X147899120Y-129377440D03*
X147899120Y-137576560D03*
X152400000Y-137576560D03*
X152400000Y-129377440D03*
D23*
X147784000Y-100806000D03*
X147284000Y-100806000D03*
X146784000Y-100806000D03*
X146284000Y-100806000D03*
X145784000Y-100806000D03*
X145284000Y-100806000D03*
X144784000Y-100806000D03*
X144284000Y-100806000D03*
X143784000Y-100806000D03*
X143284000Y-100806000D03*
X142784000Y-100806000D03*
X142284000Y-100806000D03*
D24*
X140684000Y-102406000D03*
X140684000Y-102906000D03*
X140684000Y-103406000D03*
X140684000Y-103906000D03*
X140684000Y-104406000D03*
X140684000Y-104906000D03*
X140684000Y-105406000D03*
X140684000Y-105906000D03*
X140684000Y-106406000D03*
X140684000Y-106906000D03*
X140684000Y-107406000D03*
X140684000Y-107906000D03*
D23*
X142284000Y-109506000D03*
X142784000Y-109506000D03*
X143284000Y-109506000D03*
X143784000Y-109506000D03*
X144284000Y-109506000D03*
X144784000Y-109506000D03*
X145284000Y-109506000D03*
X145784000Y-109506000D03*
X146284000Y-109506000D03*
X146784000Y-109506000D03*
X147284000Y-109506000D03*
X147784000Y-109506000D03*
D24*
X149384000Y-107906000D03*
X149384000Y-107406000D03*
X149384000Y-106906000D03*
X149384000Y-106406000D03*
X149384000Y-105906000D03*
X149384000Y-105406000D03*
X149384000Y-104906000D03*
X149384000Y-104406000D03*
X149384000Y-103906000D03*
X149384000Y-103406000D03*
X149384000Y-102906000D03*
X149384000Y-102406000D03*
D25*
X177505400Y-85163660D03*
X175605400Y-85163660D03*
X176555400Y-88165940D03*
D26*
X122174000Y-96774000D03*
D27*
X124714000Y-96774000D03*
X122174000Y-99314000D03*
X124714000Y-99314000D03*
X122174000Y-101854000D03*
X124714000Y-101854000D03*
X122174000Y-104394000D03*
X124714000Y-104394000D03*
X122174000Y-106934000D03*
X124714000Y-106934000D03*
D28*
X167259000Y-103251000D03*
X165989000Y-103251000D03*
X164719000Y-103251000D03*
X163449000Y-103251000D03*
X163449000Y-96901000D03*
X164719000Y-96901000D03*
X165989000Y-96901000D03*
X167259000Y-96901000D03*
D29*
X142770860Y-86360000D03*
X133073140Y-86360000D03*
D30*
X160858000Y-86658000D03*
X157658000Y-86658000D03*
X157658000Y-92158000D03*
X160858000Y-92158000D03*
D19*
X174752000Y-80518000D03*
D20*
X172212000Y-80518000D03*
D28*
X171831000Y-132207000D03*
X170561000Y-132207000D03*
X169291000Y-132207000D03*
X168021000Y-132207000D03*
X168021000Y-125857000D03*
X169291000Y-125857000D03*
X170561000Y-125857000D03*
X171831000Y-125857000D03*
D13*
X136144000Y-94722000D03*
X136144000Y-92222000D03*
D14*
X152674000Y-99822000D03*
X155174000Y-99822000D03*
D31*
X121840000Y-121412000D03*
X124540000Y-121412000D03*
X121840000Y-123698000D03*
X124540000Y-123698000D03*
X121840000Y-125984000D03*
X124540000Y-125984000D03*
D13*
X170434000Y-101072000D03*
X170434000Y-98572000D03*
D11*
X119634000Y-79756000D03*
D32*
X166116000Y-90563700D03*
M02*
