G04 #@! TF.FileFunction,Copper,L2,Bot,Signal*
%FSLAX46Y46*%
G04 Gerber Fmt 4.6, Leading zero omitted, Abs format (unit mm)*
G04 Created by KiCad (PCBNEW 0.201508130901+6089~28~ubuntu14.04.1-product) date Sa 15 Aug 2015 16:32:31 CEST*
%MOMM*%
G01*
G04 APERTURE LIST*
%ADD10C,0.100000*%
%ADD11C,3.564000*%
%ADD12R,1.727200X2.032000*%
%ADD13O,1.727200X2.032000*%
%ADD14R,2.032000X2.032000*%
%ADD15O,2.032000X2.032000*%
%ADD16R,1.727200X1.727200*%
%ADD17O,1.727200X1.727200*%
%ADD18C,2.235200*%
%ADD19C,0.600000*%
%ADD20C,0.550000*%
%ADD21C,0.200000*%
%ADD22C,0.254000*%
%ADD23C,0.300000*%
G04 APERTURE END LIST*
D10*
D11*
X179578000Y-112776000D03*
X178562000Y-134874000D03*
D12*
X124460000Y-116840000D03*
D13*
X127000000Y-116840000D03*
X129540000Y-116840000D03*
X132080000Y-116840000D03*
X134620000Y-116840000D03*
X137160000Y-116840000D03*
X139700000Y-116840000D03*
X142240000Y-116840000D03*
X144780000Y-116840000D03*
X147320000Y-116840000D03*
X149860000Y-116840000D03*
X152400000Y-116840000D03*
X154940000Y-116840000D03*
X157480000Y-116840000D03*
X160020000Y-116840000D03*
X162560000Y-116840000D03*
X165100000Y-116840000D03*
X167640000Y-116840000D03*
X170180000Y-116840000D03*
X172720000Y-116840000D03*
X175260000Y-116840000D03*
X177800000Y-116840000D03*
D12*
X144780000Y-121920000D03*
D13*
X147320000Y-121920000D03*
X149860000Y-121920000D03*
X152400000Y-121920000D03*
X154940000Y-121920000D03*
X157480000Y-121920000D03*
X160020000Y-121920000D03*
X162560000Y-121920000D03*
X165100000Y-121920000D03*
X167640000Y-121920000D03*
X170180000Y-121920000D03*
X172720000Y-121920000D03*
X175260000Y-121920000D03*
X177800000Y-121920000D03*
D14*
X178054000Y-129794000D03*
D15*
X178054000Y-127254000D03*
D12*
X135128000Y-80010000D03*
D13*
X137668000Y-80010000D03*
X140208000Y-80010000D03*
X142748000Y-80010000D03*
X145288000Y-80010000D03*
D16*
X122174000Y-96774000D03*
D17*
X124714000Y-96774000D03*
X122174000Y-99314000D03*
X124714000Y-99314000D03*
X122174000Y-101854000D03*
X124714000Y-101854000D03*
X122174000Y-104394000D03*
X124714000Y-104394000D03*
X122174000Y-106934000D03*
X124714000Y-106934000D03*
D14*
X174752000Y-80518000D03*
D15*
X172212000Y-80518000D03*
D11*
X119634000Y-79756000D03*
D18*
X166116000Y-90563700D03*
D19*
X132969000Y-100787200D03*
X131343400Y-100761800D03*
X129222500Y-100749100D03*
X129133600Y-99047300D03*
X131432300Y-99098100D03*
X132854700Y-99021900D03*
X132829300Y-96761300D03*
X131203700Y-96723200D03*
X129133600Y-96697800D03*
X129921000Y-93294200D03*
X127914400Y-92430600D03*
X118719600Y-92392500D03*
X153504900Y-95440500D03*
X152247600Y-90474800D03*
X151460200Y-91694000D03*
X147777200Y-91643200D03*
X140004800Y-128917700D03*
X134645400Y-129527300D03*
X130009900Y-129222500D03*
X124421900Y-129590800D03*
X119303800Y-133858000D03*
X125056900Y-134200900D03*
X130340100Y-133832600D03*
X135343900Y-134505700D03*
X140449300Y-133781800D03*
X145034000Y-129451100D03*
X145034000Y-134086600D03*
X165544500Y-129971800D03*
X181381400Y-105867200D03*
X179235100Y-99326700D03*
X174244000Y-128778000D03*
X135636000Y-96774000D03*
X141478000Y-95758000D03*
X143764000Y-107442000D03*
X144780000Y-103378000D03*
X145796000Y-105156000D03*
X172212000Y-78486000D03*
X180594000Y-79756000D03*
X172974000Y-99822000D03*
X145034000Y-102362000D03*
X172859700Y-95554800D03*
X167106600Y-94640400D03*
X123952000Y-115062000D03*
X131064000Y-115062000D03*
X124714000Y-93980000D03*
X119634000Y-126492000D03*
X119888000Y-129286000D03*
X139700000Y-124460000D03*
X164592000Y-124968000D03*
X143256000Y-111760000D03*
X164592000Y-114808000D03*
X159766000Y-123698000D03*
X138938000Y-121920000D03*
X141986000Y-106680000D03*
X129286000Y-123190000D03*
X161798000Y-124460000D03*
X162052000Y-115062000D03*
X142240000Y-111760000D03*
X132334000Y-106934000D03*
X135128000Y-99568000D03*
X138684000Y-100330000D03*
X141478000Y-100330000D03*
X141224000Y-101600000D03*
X156972000Y-107442000D03*
X151638000Y-107950000D03*
X158242000Y-107442000D03*
X157480000Y-104140000D03*
X128524000Y-137414000D03*
X128524000Y-129794000D03*
X159258000Y-107442000D03*
X159004000Y-103632000D03*
X138938000Y-137160000D03*
X138684000Y-129540000D03*
X151638000Y-111760000D03*
X161036000Y-112014000D03*
X149098000Y-137160000D03*
X149098000Y-130048000D03*
X163322000Y-105410000D03*
X165608000Y-109982000D03*
X171196000Y-113030000D03*
X142748000Y-103632000D03*
X154432000Y-110236000D03*
X172720000Y-107950000D03*
X151130000Y-109220000D03*
X170942000Y-111252000D03*
X143764000Y-105918000D03*
X144272000Y-104902000D03*
X130810000Y-103124000D03*
X129540000Y-103632000D03*
X126746000Y-105410000D03*
D20*
X177800000Y-121920000D02*
X177800000Y-121488200D01*
X177800000Y-121488200D02*
X178231800Y-121056400D01*
X178231800Y-121056400D02*
X178231800Y-117271800D01*
X178231800Y-117271800D02*
X177800000Y-116840000D01*
X144780000Y-121920000D02*
X144780000Y-121081800D01*
X144780000Y-121081800D02*
X144424400Y-120726200D01*
X144424400Y-120726200D02*
X144424400Y-117195600D01*
X144424400Y-117195600D02*
X144780000Y-116840000D01*
X131419600Y-100838000D02*
X132969000Y-100787200D01*
X131343400Y-100761800D02*
X131419600Y-100838000D01*
X129171700Y-99085400D02*
X129222500Y-100749100D01*
X129133600Y-99047300D02*
X129171700Y-99085400D01*
X132778500Y-99098100D02*
X131432300Y-99098100D01*
X132854700Y-99021900D02*
X132778500Y-99098100D01*
X131241800Y-96761300D02*
X132829300Y-96761300D01*
X131203700Y-96723200D02*
X131241800Y-96761300D01*
X129133600Y-94081600D02*
X129133600Y-96697800D01*
X129921000Y-93294200D02*
X129133600Y-94081600D01*
X127241300Y-91757500D02*
X127914400Y-92430600D01*
X119354600Y-91757500D02*
X127241300Y-91757500D01*
X118719600Y-92392500D02*
X119354600Y-91757500D01*
X153504900Y-91732100D02*
X153504900Y-95440500D01*
X152247600Y-90474800D02*
X153504900Y-91732100D01*
X147828000Y-91694000D02*
X151460200Y-91694000D01*
X147777200Y-91643200D02*
X147828000Y-91694000D01*
X140449300Y-133781800D02*
X140449300Y-129362200D01*
X140449300Y-129362200D02*
X140004800Y-128917700D01*
X135343900Y-134505700D02*
X135343900Y-130225800D01*
X135343900Y-130225800D02*
X134645400Y-129527300D01*
X130340100Y-133832600D02*
X130340100Y-129552700D01*
X130340100Y-129552700D02*
X130009900Y-129222500D01*
X125056900Y-134200900D02*
X125056900Y-130225800D01*
X125056900Y-130225800D02*
X124421900Y-129590800D01*
X145034000Y-134086600D02*
X140754100Y-134086600D01*
X124714000Y-133858000D02*
X119303800Y-133858000D01*
X125056900Y-134200900D02*
X124714000Y-133858000D01*
X134670800Y-133832600D02*
X130340100Y-133832600D01*
X135343900Y-134505700D02*
X134670800Y-133832600D01*
X140754100Y-134086600D02*
X140449300Y-133781800D01*
X145034000Y-129476500D02*
X145034000Y-129451100D01*
X145034000Y-129476500D02*
X145034000Y-134086600D01*
X146570700Y-127914400D02*
X145034000Y-129451100D01*
X163487100Y-127914400D02*
X146570700Y-127914400D01*
X165544500Y-129971800D02*
X163487100Y-127914400D01*
X179514500Y-104000300D02*
X181381400Y-105867200D01*
X179514500Y-99606100D02*
X179514500Y-104000300D01*
X179235100Y-99326700D02*
X179514500Y-99606100D01*
D21*
X177800000Y-121920000D02*
X177800000Y-123190000D01*
X174244000Y-126746000D02*
X174244000Y-128778000D01*
X177800000Y-123190000D02*
X174244000Y-126746000D01*
X141478000Y-95758000D02*
X140462000Y-96774000D01*
X135636000Y-96774000D02*
X140462000Y-96774000D01*
X146050000Y-105410000D02*
X145796000Y-105156000D01*
X146050000Y-106680000D02*
X146050000Y-105410000D01*
X145288000Y-107442000D02*
X146050000Y-106680000D01*
X143764000Y-107442000D02*
X145288000Y-107442000D01*
X144780000Y-103378000D02*
X145796000Y-104394000D01*
X145796000Y-104394000D02*
X145796000Y-105156000D01*
X180594000Y-79502000D02*
X180594000Y-79756000D01*
X179070000Y-77978000D02*
X180594000Y-79502000D01*
X172720000Y-77978000D02*
X179070000Y-77978000D01*
X172212000Y-78486000D02*
X172720000Y-77978000D01*
X160020000Y-99822000D02*
X172974000Y-99822000D01*
X156972000Y-102870000D02*
X160020000Y-99822000D01*
X145542000Y-102870000D02*
X156972000Y-102870000D01*
X145034000Y-102362000D02*
X145542000Y-102870000D01*
D20*
X168021000Y-95554800D02*
X172859700Y-95554800D01*
X167106600Y-94640400D02*
X168021000Y-95554800D01*
X131064000Y-115062000D02*
X123952000Y-115062000D01*
X123952000Y-115062000D02*
X119380000Y-115062000D01*
X119380000Y-115062000D02*
X118110000Y-113792000D01*
X118110000Y-113792000D02*
X118110000Y-94996000D01*
X118110000Y-94996000D02*
X119126000Y-93980000D01*
X119126000Y-93980000D02*
X124714000Y-93980000D01*
X119634000Y-129032000D02*
X119634000Y-126492000D01*
X119888000Y-129286000D02*
X119634000Y-129032000D01*
D22*
X140462000Y-125222000D02*
X139700000Y-124460000D01*
X164846000Y-125222000D02*
X140462000Y-125222000D01*
X164592000Y-124968000D02*
X164846000Y-125222000D01*
X143256000Y-113030000D02*
X143256000Y-111760000D01*
X144018000Y-113792000D02*
X143256000Y-113030000D01*
X163576000Y-113792000D02*
X144018000Y-113792000D01*
X164592000Y-114808000D02*
X163576000Y-113792000D01*
X159766000Y-123698000D02*
X142240000Y-123698000D01*
X142240000Y-123698000D02*
X140462000Y-121920000D01*
X140462000Y-121920000D02*
X138938000Y-121920000D01*
X160020000Y-115570000D02*
X160020000Y-116840000D01*
X159766000Y-115316000D02*
X160020000Y-115570000D01*
X143002000Y-115316000D02*
X159766000Y-115316000D01*
X141478000Y-113792000D02*
X143002000Y-115316000D01*
X141478000Y-107188000D02*
X141478000Y-113792000D01*
X141986000Y-106680000D02*
X141478000Y-107188000D01*
X140208000Y-123190000D02*
X129286000Y-123190000D01*
X141478000Y-124460000D02*
X140208000Y-123190000D01*
X161798000Y-124460000D02*
X141478000Y-124460000D01*
X162052000Y-115062000D02*
X161544000Y-114554000D01*
X161544000Y-114554000D02*
X143256000Y-114554000D01*
X143256000Y-114554000D02*
X142240000Y-113538000D01*
X142240000Y-113538000D02*
X142240000Y-111760000D01*
X132080000Y-116840000D02*
X132080000Y-114300000D01*
X132334000Y-106934000D02*
X132080000Y-107188000D01*
X132080000Y-107188000D02*
X132080000Y-114300000D01*
X134620000Y-116840000D02*
X134620000Y-114300000D01*
X135128000Y-99568000D02*
X134620000Y-100076000D01*
X134620000Y-100076000D02*
X134620000Y-114300000D01*
X138430000Y-114300000D02*
X138430000Y-114808000D01*
X138684000Y-100330000D02*
X138430000Y-100584000D01*
X138430000Y-100584000D02*
X138430000Y-114300000D01*
X138430000Y-114808000D02*
X137160000Y-116078000D01*
X137160000Y-116078000D02*
X137160000Y-116840000D01*
X139700000Y-116840000D02*
X139700000Y-114300000D01*
X141478000Y-100330000D02*
X139700000Y-102108000D01*
X139700000Y-102108000D02*
X139700000Y-114300000D01*
X140716000Y-114300000D02*
X140716000Y-114554000D01*
X141224000Y-101600000D02*
X140716000Y-102108000D01*
X140716000Y-102108000D02*
X140716000Y-114300000D01*
X140716000Y-114554000D02*
X142240000Y-116078000D01*
X142240000Y-116078000D02*
X142240000Y-116840000D01*
X156972000Y-107442000D02*
X156464000Y-107950000D01*
X156464000Y-107950000D02*
X151638000Y-107950000D01*
X158242000Y-107442000D02*
X157988000Y-107188000D01*
X157988000Y-107188000D02*
X157988000Y-104902000D01*
X157988000Y-104648000D02*
X157988000Y-104902000D01*
X157480000Y-104140000D02*
X157988000Y-104648000D01*
X128524000Y-129794000D02*
X128524000Y-137414000D01*
X159258000Y-107442000D02*
X159258000Y-104140000D01*
X159258000Y-103886000D02*
X159258000Y-104140000D01*
X159004000Y-103632000D02*
X159258000Y-103886000D01*
X138938000Y-129794000D02*
X138938000Y-137160000D01*
X138684000Y-129540000D02*
X138938000Y-129794000D01*
X151892000Y-112014000D02*
X161036000Y-112014000D01*
X151638000Y-111760000D02*
X151892000Y-112014000D01*
X149098000Y-130048000D02*
X149098000Y-137160000D01*
X163322000Y-107696000D02*
X163322000Y-105410000D01*
X165608000Y-109982000D02*
X163322000Y-107696000D01*
D23*
X171196000Y-113030000D02*
X170942000Y-112776000D01*
X170942000Y-112776000D02*
X146304000Y-112776000D01*
X146304000Y-112776000D02*
X142748000Y-109220000D01*
X142748000Y-109220000D02*
X142748000Y-103632000D01*
D21*
X170434000Y-108458000D02*
X170434000Y-108204000D01*
X169926000Y-110744000D02*
X170434000Y-110236000D01*
X154940000Y-110744000D02*
X169926000Y-110744000D01*
X154432000Y-110236000D02*
X154940000Y-110744000D01*
X170434000Y-110236000D02*
X170434000Y-108458000D01*
X170688000Y-107950000D02*
X172720000Y-107950000D01*
X170434000Y-108204000D02*
X170688000Y-107950000D01*
X153162000Y-111252000D02*
X151130000Y-109220000D01*
X170688000Y-111252000D02*
X153162000Y-111252000D01*
X170942000Y-111252000D02*
X170688000Y-111252000D01*
X140208000Y-83566000D02*
X140208000Y-80010000D01*
X143510000Y-86868000D02*
X140208000Y-83566000D01*
X143510000Y-105664000D02*
X143510000Y-86868000D01*
X143764000Y-105918000D02*
X143510000Y-105664000D01*
X142748000Y-82296000D02*
X142748000Y-80010000D01*
X144018000Y-83566000D02*
X142748000Y-82296000D01*
X144018000Y-104648000D02*
X144018000Y-83566000D01*
X144272000Y-104902000D02*
X144018000Y-104648000D01*
X120904000Y-101854000D02*
X122174000Y-101854000D01*
X119126000Y-103632000D02*
X120904000Y-101854000D01*
X119126000Y-108458000D02*
X119126000Y-103632000D01*
X120904000Y-110236000D02*
X119126000Y-108458000D01*
X125730000Y-110236000D02*
X120904000Y-110236000D01*
X128016000Y-107950000D02*
X125730000Y-110236000D01*
X128016000Y-106426000D02*
X128016000Y-107950000D01*
X130302000Y-104140000D02*
X128016000Y-106426000D01*
X130302000Y-103632000D02*
X130302000Y-104140000D01*
X130810000Y-103124000D02*
X130302000Y-103632000D01*
X120396000Y-104394000D02*
X122174000Y-104394000D01*
X119634000Y-105156000D02*
X120396000Y-104394000D01*
X119634000Y-107950000D02*
X119634000Y-105156000D01*
X121158000Y-109474000D02*
X119634000Y-107950000D01*
X125476000Y-109474000D02*
X121158000Y-109474000D01*
X127254000Y-107696000D02*
X125476000Y-109474000D01*
X127254000Y-106172000D02*
X127254000Y-107696000D01*
X129540000Y-103886000D02*
X127254000Y-106172000D01*
X129540000Y-103632000D02*
X129540000Y-103886000D01*
X126238000Y-99314000D02*
X124714000Y-99314000D01*
X127762000Y-100838000D02*
X126238000Y-99314000D01*
X127762000Y-104394000D02*
X127762000Y-100838000D01*
X126746000Y-105410000D02*
X127762000Y-104394000D01*
D22*
G36*
X182935600Y-118745000D02*
X115389600Y-118745000D01*
X115389600Y-94996000D01*
X117307999Y-94996000D01*
X117308000Y-94996005D01*
X117308000Y-113791995D01*
X117307999Y-113792000D01*
X117369049Y-114098912D01*
X117542900Y-114359100D01*
X118812898Y-115629097D01*
X118812900Y-115629100D01*
X119073088Y-115802951D01*
X119380000Y-115864000D01*
X123059076Y-115864000D01*
X123059076Y-117856000D01*
X123095823Y-118051294D01*
X123211242Y-118230660D01*
X123387351Y-118350990D01*
X123596400Y-118393324D01*
X125323600Y-118393324D01*
X125518894Y-118356577D01*
X125698260Y-118241158D01*
X125818590Y-118065049D01*
X125860924Y-117856000D01*
X125860924Y-117772801D01*
X126016697Y-118005932D01*
X126467840Y-118307376D01*
X127000000Y-118413229D01*
X127532160Y-118307376D01*
X127983303Y-118005932D01*
X128270000Y-117576859D01*
X128556697Y-118005932D01*
X129007840Y-118307376D01*
X129540000Y-118413229D01*
X130072160Y-118307376D01*
X130523303Y-118005932D01*
X130810000Y-117576859D01*
X131096697Y-118005932D01*
X131547840Y-118307376D01*
X132080000Y-118413229D01*
X132612160Y-118307376D01*
X133063303Y-118005932D01*
X133350000Y-117576859D01*
X133636697Y-118005932D01*
X134087840Y-118307376D01*
X134620000Y-118413229D01*
X135152160Y-118307376D01*
X135603303Y-118005932D01*
X135890000Y-117576859D01*
X136176697Y-118005932D01*
X136627840Y-118307376D01*
X137160000Y-118413229D01*
X137692160Y-118307376D01*
X138143303Y-118005932D01*
X138430000Y-117576859D01*
X138716697Y-118005932D01*
X139167840Y-118307376D01*
X139700000Y-118413229D01*
X140232160Y-118307376D01*
X140683303Y-118005932D01*
X140970000Y-117576859D01*
X141256697Y-118005932D01*
X141707840Y-118307376D01*
X142240000Y-118413229D01*
X142772160Y-118307376D01*
X143223303Y-118005932D01*
X143324440Y-117854569D01*
X143324443Y-117854577D01*
X143765182Y-118345965D01*
X144360417Y-118631285D01*
X144390843Y-118637601D01*
X144653000Y-118470805D01*
X144653000Y-116967000D01*
X144633000Y-116967000D01*
X144633000Y-116713000D01*
X144653000Y-116713000D01*
X144653000Y-116693000D01*
X144907000Y-116693000D01*
X144907000Y-116713000D01*
X144927000Y-116713000D01*
X144927000Y-116967000D01*
X144907000Y-116967000D01*
X144907000Y-118470805D01*
X145169157Y-118637601D01*
X145199583Y-118631285D01*
X145794818Y-118345965D01*
X146235557Y-117854577D01*
X146235560Y-117854569D01*
X146336697Y-118005932D01*
X146787840Y-118307376D01*
X147320000Y-118413229D01*
X147852160Y-118307376D01*
X148303303Y-118005932D01*
X148590000Y-117576859D01*
X148876697Y-118005932D01*
X149327840Y-118307376D01*
X149860000Y-118413229D01*
X150392160Y-118307376D01*
X150843303Y-118005932D01*
X151130000Y-117576859D01*
X151416697Y-118005932D01*
X151867840Y-118307376D01*
X152400000Y-118413229D01*
X152932160Y-118307376D01*
X153383303Y-118005932D01*
X153670000Y-117576859D01*
X153956697Y-118005932D01*
X154407840Y-118307376D01*
X154940000Y-118413229D01*
X155472160Y-118307376D01*
X155923303Y-118005932D01*
X156210000Y-117576859D01*
X156496697Y-118005932D01*
X156947840Y-118307376D01*
X157480000Y-118413229D01*
X158012160Y-118307376D01*
X158463303Y-118005932D01*
X158750000Y-117576859D01*
X159036697Y-118005932D01*
X159487840Y-118307376D01*
X160020000Y-118413229D01*
X160552160Y-118307376D01*
X161003303Y-118005932D01*
X161290000Y-117576859D01*
X161576697Y-118005932D01*
X162027840Y-118307376D01*
X162560000Y-118413229D01*
X163092160Y-118307376D01*
X163543303Y-118005932D01*
X163830000Y-117576859D01*
X164116697Y-118005932D01*
X164567840Y-118307376D01*
X165100000Y-118413229D01*
X165632160Y-118307376D01*
X166083303Y-118005932D01*
X166370000Y-117576859D01*
X166656697Y-118005932D01*
X167107840Y-118307376D01*
X167640000Y-118413229D01*
X168172160Y-118307376D01*
X168623303Y-118005932D01*
X168910000Y-117576859D01*
X169196697Y-118005932D01*
X169647840Y-118307376D01*
X170180000Y-118413229D01*
X170712160Y-118307376D01*
X171163303Y-118005932D01*
X171450000Y-117576859D01*
X171736697Y-118005932D01*
X172187840Y-118307376D01*
X172720000Y-118413229D01*
X173252160Y-118307376D01*
X173703303Y-118005932D01*
X173990000Y-117576859D01*
X174276697Y-118005932D01*
X174727840Y-118307376D01*
X175260000Y-118413229D01*
X175792160Y-118307376D01*
X176243303Y-118005932D01*
X176344440Y-117854569D01*
X176344443Y-117854577D01*
X176785182Y-118345965D01*
X177380417Y-118631285D01*
X177410843Y-118637601D01*
X177673000Y-118470805D01*
X177673000Y-116967000D01*
X177927000Y-116967000D01*
X177927000Y-118470805D01*
X178189157Y-118637601D01*
X178219583Y-118631285D01*
X178814818Y-118345965D01*
X179255557Y-117854577D01*
X179474700Y-117231930D01*
X179284802Y-116967000D01*
X177927000Y-116967000D01*
X177673000Y-116967000D01*
X177653000Y-116967000D01*
X177653000Y-116713000D01*
X177673000Y-116713000D01*
X177673000Y-115209195D01*
X177927000Y-115209195D01*
X177927000Y-116713000D01*
X179284802Y-116713000D01*
X179474700Y-116448070D01*
X179255557Y-115825423D01*
X178814818Y-115334035D01*
X178219583Y-115048715D01*
X178189157Y-115042399D01*
X177927000Y-115209195D01*
X177673000Y-115209195D01*
X177410843Y-115042399D01*
X177380417Y-115048715D01*
X176785182Y-115334035D01*
X176344443Y-115825423D01*
X176344440Y-115825431D01*
X176243303Y-115674068D01*
X175792160Y-115372624D01*
X175260000Y-115266771D01*
X174727840Y-115372624D01*
X174276697Y-115674068D01*
X173990000Y-116103141D01*
X173703303Y-115674068D01*
X173252160Y-115372624D01*
X172720000Y-115266771D01*
X172187840Y-115372624D01*
X171736697Y-115674068D01*
X171450000Y-116103141D01*
X171163303Y-115674068D01*
X170712160Y-115372624D01*
X170180000Y-115266771D01*
X169647840Y-115372624D01*
X169196697Y-115674068D01*
X168910000Y-116103141D01*
X168623303Y-115674068D01*
X168172160Y-115372624D01*
X167640000Y-115266771D01*
X167107840Y-115372624D01*
X166656697Y-115674068D01*
X166370000Y-116103141D01*
X166083303Y-115674068D01*
X165632160Y-115372624D01*
X165269275Y-115300442D01*
X165292688Y-115277070D01*
X165418856Y-114973222D01*
X165419143Y-114644221D01*
X165293505Y-114340154D01*
X165061070Y-114107312D01*
X164757222Y-113981144D01*
X164689981Y-113981085D01*
X164161896Y-113453000D01*
X170475965Y-113453000D01*
X170494495Y-113497846D01*
X170726930Y-113730688D01*
X171030778Y-113856856D01*
X171359779Y-113857143D01*
X171663846Y-113731505D01*
X171896688Y-113499070D01*
X172007055Y-113233274D01*
X177268600Y-113233274D01*
X177619384Y-114082235D01*
X178268349Y-114732334D01*
X179116697Y-115084598D01*
X180035274Y-115085400D01*
X180884235Y-114734616D01*
X181534334Y-114085651D01*
X181886598Y-113237303D01*
X181887400Y-112318726D01*
X181536616Y-111469765D01*
X180887651Y-110819666D01*
X180039303Y-110467402D01*
X179120726Y-110466600D01*
X178271765Y-110817384D01*
X177621666Y-111466349D01*
X177269402Y-112314697D01*
X177268600Y-113233274D01*
X172007055Y-113233274D01*
X172022856Y-113195222D01*
X172023143Y-112866221D01*
X171897505Y-112562154D01*
X171665070Y-112329312D01*
X171361222Y-112203144D01*
X171279707Y-112203073D01*
X171201077Y-112150534D01*
X170942000Y-112099000D01*
X161862926Y-112099000D01*
X161863118Y-111879000D01*
X170399371Y-111879000D01*
X170472930Y-111952688D01*
X170776778Y-112078856D01*
X171105779Y-112079143D01*
X171409846Y-111953505D01*
X171642688Y-111721070D01*
X171768856Y-111417222D01*
X171769143Y-111088221D01*
X171643505Y-110784154D01*
X171411070Y-110551312D01*
X171107222Y-110425144D01*
X171023391Y-110425071D01*
X171061000Y-110236000D01*
X171061000Y-108577000D01*
X172177371Y-108577000D01*
X172250930Y-108650688D01*
X172554778Y-108776856D01*
X172883779Y-108777143D01*
X173187846Y-108651505D01*
X173420688Y-108419070D01*
X173546856Y-108115222D01*
X173547143Y-107786221D01*
X173421505Y-107482154D01*
X173189070Y-107249312D01*
X172885222Y-107123144D01*
X172556221Y-107122857D01*
X172252154Y-107248495D01*
X172177519Y-107323000D01*
X170688000Y-107323000D01*
X170448057Y-107370728D01*
X170305233Y-107466160D01*
X170244644Y-107506644D01*
X169990644Y-107760644D01*
X169854728Y-107964057D01*
X169807000Y-108204000D01*
X169807000Y-109976288D01*
X169666288Y-110117000D01*
X166434882Y-110117000D01*
X166435143Y-109818221D01*
X166309505Y-109514154D01*
X166077070Y-109281312D01*
X165773222Y-109155144D01*
X165705981Y-109155085D01*
X163976000Y-107425104D01*
X163976000Y-105925676D01*
X164022688Y-105879070D01*
X164148856Y-105575222D01*
X164149143Y-105246221D01*
X164023505Y-104942154D01*
X163791070Y-104709312D01*
X163487222Y-104583144D01*
X163158221Y-104582857D01*
X162854154Y-104708495D01*
X162621312Y-104940930D01*
X162495144Y-105244778D01*
X162494857Y-105573779D01*
X162620495Y-105877846D01*
X162668000Y-105925434D01*
X162668000Y-107696000D01*
X162717783Y-107946275D01*
X162859552Y-108158448D01*
X164780915Y-110079811D01*
X164780882Y-110117000D01*
X155259104Y-110117000D01*
X155259143Y-110072221D01*
X155133505Y-109768154D01*
X154901070Y-109535312D01*
X154597222Y-109409144D01*
X154268221Y-109408857D01*
X153964154Y-109534495D01*
X153731312Y-109766930D01*
X153605144Y-110070778D01*
X153604857Y-110399779D01*
X153697916Y-110625000D01*
X153421712Y-110625000D01*
X151957052Y-109160340D01*
X151957143Y-109056221D01*
X151835990Y-108763007D01*
X152105846Y-108651505D01*
X152153434Y-108604000D01*
X156464000Y-108604000D01*
X156714275Y-108554217D01*
X156926448Y-108412448D01*
X157069810Y-108269085D01*
X157135779Y-108269143D01*
X157439846Y-108143505D01*
X157607088Y-107976555D01*
X157772930Y-108142688D01*
X158076778Y-108268856D01*
X158405779Y-108269143D01*
X158709846Y-108143505D01*
X158749866Y-108103555D01*
X158788930Y-108142688D01*
X159092778Y-108268856D01*
X159421779Y-108269143D01*
X159725846Y-108143505D01*
X159958688Y-107911070D01*
X160084856Y-107607222D01*
X160085143Y-107278221D01*
X159959505Y-106974154D01*
X159912000Y-106926566D01*
X159912000Y-103886000D01*
X159862217Y-103635725D01*
X159831038Y-103589062D01*
X159831143Y-103468221D01*
X159705505Y-103164154D01*
X159473070Y-102931312D01*
X159169222Y-102805144D01*
X158840221Y-102804857D01*
X158536154Y-102930495D01*
X158303312Y-103162930D01*
X158177144Y-103466778D01*
X158176969Y-103667610D01*
X157949070Y-103439312D01*
X157645222Y-103313144D01*
X157415768Y-103312944D01*
X160279712Y-100449000D01*
X172431371Y-100449000D01*
X172504930Y-100522688D01*
X172808778Y-100648856D01*
X173137779Y-100649143D01*
X173441846Y-100523505D01*
X173674688Y-100291070D01*
X173800856Y-99987222D01*
X173801143Y-99658221D01*
X173675505Y-99354154D01*
X173443070Y-99121312D01*
X173139222Y-98995144D01*
X172810221Y-98994857D01*
X172506154Y-99120495D01*
X172431519Y-99195000D01*
X160020000Y-99195000D01*
X159780058Y-99242727D01*
X159576644Y-99378644D01*
X156712288Y-102243000D01*
X145861104Y-102243000D01*
X145861143Y-102198221D01*
X145735505Y-101894154D01*
X145503070Y-101661312D01*
X145199222Y-101535144D01*
X144870221Y-101534857D01*
X144645000Y-101627916D01*
X144645000Y-94804179D01*
X166279457Y-94804179D01*
X166405095Y-95108246D01*
X166637530Y-95341088D01*
X166698337Y-95366337D01*
X167453900Y-96121900D01*
X167714088Y-96295751D01*
X168021000Y-96356801D01*
X168021005Y-96356800D01*
X172634618Y-96356800D01*
X172694478Y-96381656D01*
X173023479Y-96381943D01*
X173327546Y-96256305D01*
X173560388Y-96023870D01*
X173686556Y-95720022D01*
X173686843Y-95391021D01*
X173561205Y-95086954D01*
X173328770Y-94854112D01*
X173024922Y-94727944D01*
X172695921Y-94727657D01*
X172635070Y-94752800D01*
X168353200Y-94752800D01*
X167832856Y-94232456D01*
X167808105Y-94172554D01*
X167575670Y-93939712D01*
X167271822Y-93813544D01*
X166942821Y-93813257D01*
X166638754Y-93938895D01*
X166405912Y-94171330D01*
X166279744Y-94475178D01*
X166279457Y-94804179D01*
X144645000Y-94804179D01*
X144645000Y-90889396D01*
X164471115Y-90889396D01*
X164720963Y-91494074D01*
X165183192Y-91957111D01*
X165787434Y-92208014D01*
X166441696Y-92208585D01*
X167046374Y-91958737D01*
X167509411Y-91496508D01*
X167760314Y-90892266D01*
X167760885Y-90238004D01*
X167511037Y-89633326D01*
X167048808Y-89170289D01*
X166444566Y-88919386D01*
X165790304Y-88918815D01*
X165185626Y-89168663D01*
X164722589Y-89630892D01*
X164471686Y-90235134D01*
X164471115Y-90889396D01*
X144645000Y-90889396D01*
X144645000Y-83566000D01*
X144597272Y-83326057D01*
X144461356Y-83122644D01*
X143375000Y-82036288D01*
X143375000Y-81414006D01*
X143731303Y-81175932D01*
X144018000Y-80746859D01*
X144304697Y-81175932D01*
X144755840Y-81477376D01*
X145288000Y-81583229D01*
X145820160Y-81477376D01*
X146271303Y-81175932D01*
X146434920Y-80931061D01*
X170415877Y-80931061D01*
X170710670Y-81586965D01*
X171234027Y-82080129D01*
X171798940Y-82314115D01*
X172085000Y-82149314D01*
X172085000Y-80645000D01*
X170580123Y-80645000D01*
X170415877Y-80931061D01*
X146434920Y-80931061D01*
X146572747Y-80724789D01*
X146678600Y-80192629D01*
X146678600Y-80104939D01*
X170415877Y-80104939D01*
X170580123Y-80391000D01*
X172085000Y-80391000D01*
X172085000Y-78886686D01*
X172339000Y-78886686D01*
X172339000Y-80391000D01*
X172359000Y-80391000D01*
X172359000Y-80645000D01*
X172339000Y-80645000D01*
X172339000Y-82149314D01*
X172625060Y-82314115D01*
X173189973Y-82080129D01*
X173363072Y-81917016D01*
X173526951Y-82028990D01*
X173736000Y-82071324D01*
X175768000Y-82071324D01*
X175963294Y-82034577D01*
X176142660Y-81919158D01*
X176262990Y-81743049D01*
X176305324Y-81534000D01*
X176305324Y-79502000D01*
X176268577Y-79306706D01*
X176153158Y-79127340D01*
X175977049Y-79007010D01*
X175768000Y-78964676D01*
X173736000Y-78964676D01*
X173540706Y-79001423D01*
X173361340Y-79116842D01*
X173361128Y-79117152D01*
X173189973Y-78955871D01*
X172625060Y-78721885D01*
X172339000Y-78886686D01*
X172085000Y-78886686D01*
X171798940Y-78721885D01*
X171234027Y-78955871D01*
X170710670Y-79449035D01*
X170415877Y-80104939D01*
X146678600Y-80104939D01*
X146678600Y-79827371D01*
X146572747Y-79295211D01*
X146271303Y-78844068D01*
X145820160Y-78542624D01*
X145288000Y-78436771D01*
X144755840Y-78542624D01*
X144304697Y-78844068D01*
X144018000Y-79273141D01*
X143731303Y-78844068D01*
X143280160Y-78542624D01*
X142748000Y-78436771D01*
X142215840Y-78542624D01*
X141764697Y-78844068D01*
X141478000Y-79273141D01*
X141191303Y-78844068D01*
X140740160Y-78542624D01*
X140208000Y-78436771D01*
X139675840Y-78542624D01*
X139224697Y-78844068D01*
X139123560Y-78995431D01*
X139123557Y-78995423D01*
X138682818Y-78504035D01*
X138087583Y-78218715D01*
X138057157Y-78212399D01*
X137795000Y-78379195D01*
X137795000Y-79883000D01*
X137815000Y-79883000D01*
X137815000Y-80137000D01*
X137795000Y-80137000D01*
X137795000Y-81640805D01*
X138057157Y-81807601D01*
X138087583Y-81801285D01*
X138682818Y-81515965D01*
X139123557Y-81024577D01*
X139123560Y-81024569D01*
X139224697Y-81175932D01*
X139581000Y-81414006D01*
X139581000Y-83566000D01*
X139628728Y-83805943D01*
X139764644Y-84009356D01*
X142883000Y-87127712D01*
X142883000Y-102805118D01*
X142584221Y-102804857D01*
X142280154Y-102930495D01*
X142047312Y-103162930D01*
X141921144Y-103466778D01*
X141920857Y-103795779D01*
X142046495Y-104099846D01*
X142071000Y-104124394D01*
X142071000Y-105853074D01*
X141822221Y-105852857D01*
X141518154Y-105978495D01*
X141370000Y-106126390D01*
X141370000Y-102427127D01*
X141387779Y-102427143D01*
X141691846Y-102301505D01*
X141924688Y-102069070D01*
X142050856Y-101765222D01*
X142051143Y-101436221D01*
X141925505Y-101132154D01*
X141860312Y-101066847D01*
X141945846Y-101031505D01*
X142178688Y-100799070D01*
X142304856Y-100495222D01*
X142305143Y-100166221D01*
X142179505Y-99862154D01*
X141947070Y-99629312D01*
X141643222Y-99503144D01*
X141314221Y-99502857D01*
X141010154Y-99628495D01*
X140777312Y-99860930D01*
X140651144Y-100164778D01*
X140651085Y-100232019D01*
X139237552Y-101645552D01*
X139095783Y-101857725D01*
X139084000Y-101916962D01*
X139084000Y-101059538D01*
X139151846Y-101031505D01*
X139384688Y-100799070D01*
X139510856Y-100495222D01*
X139511143Y-100166221D01*
X139385505Y-99862154D01*
X139153070Y-99629312D01*
X138849222Y-99503144D01*
X138520221Y-99502857D01*
X138216154Y-99628495D01*
X137983312Y-99860930D01*
X137857144Y-100164778D01*
X137857037Y-100286949D01*
X137825783Y-100333725D01*
X137776000Y-100584000D01*
X137776000Y-114537104D01*
X137018109Y-115294995D01*
X136627840Y-115372624D01*
X136176697Y-115674068D01*
X135890000Y-116103141D01*
X135603303Y-115674068D01*
X135274000Y-115454035D01*
X135274000Y-100395127D01*
X135291779Y-100395143D01*
X135595846Y-100269505D01*
X135828688Y-100037070D01*
X135954856Y-99733222D01*
X135955143Y-99404221D01*
X135829505Y-99100154D01*
X135597070Y-98867312D01*
X135293222Y-98741144D01*
X134964221Y-98740857D01*
X134660154Y-98866495D01*
X134427312Y-99098930D01*
X134301144Y-99402778D01*
X134301085Y-99470019D01*
X134157552Y-99613552D01*
X134015783Y-99825725D01*
X133966000Y-100076000D01*
X133966000Y-115454035D01*
X133636697Y-115674068D01*
X133350000Y-116103141D01*
X133063303Y-115674068D01*
X132734000Y-115454035D01*
X132734000Y-107663538D01*
X132801846Y-107635505D01*
X133034688Y-107403070D01*
X133160856Y-107099222D01*
X133161143Y-106770221D01*
X133035505Y-106466154D01*
X132803070Y-106233312D01*
X132499222Y-106107144D01*
X132170221Y-106106857D01*
X131866154Y-106232495D01*
X131633312Y-106464930D01*
X131507144Y-106768778D01*
X131507037Y-106890949D01*
X131475783Y-106937725D01*
X131426000Y-107188000D01*
X131426000Y-114316853D01*
X131229222Y-114235144D01*
X130900221Y-114234857D01*
X130839370Y-114260000D01*
X124177082Y-114260000D01*
X124117222Y-114235144D01*
X123788221Y-114234857D01*
X123727370Y-114260000D01*
X119712199Y-114260000D01*
X118912000Y-113459800D01*
X118912000Y-109130712D01*
X120460644Y-110679356D01*
X120664058Y-110815273D01*
X120904000Y-110863000D01*
X125730000Y-110863000D01*
X125969943Y-110815272D01*
X126173356Y-110679356D01*
X128459356Y-108393356D01*
X128459689Y-108392857D01*
X128595272Y-108189943D01*
X128643000Y-107950000D01*
X128643000Y-106685712D01*
X130745356Y-104583356D01*
X130749785Y-104576728D01*
X130881272Y-104379943D01*
X130929000Y-104140000D01*
X130929000Y-103951104D01*
X130973779Y-103951143D01*
X131277846Y-103825505D01*
X131510688Y-103593070D01*
X131636856Y-103289222D01*
X131637143Y-102960221D01*
X131511505Y-102656154D01*
X131279070Y-102423312D01*
X130975222Y-102297144D01*
X130646221Y-102296857D01*
X130342154Y-102422495D01*
X130109312Y-102654930D01*
X129996684Y-102926169D01*
X129705222Y-102805144D01*
X129376221Y-102804857D01*
X129072154Y-102930495D01*
X128839312Y-103162930D01*
X128713144Y-103466778D01*
X128712857Y-103795779D01*
X128721819Y-103817469D01*
X128389000Y-104150288D01*
X128389000Y-100838000D01*
X128341272Y-100598057D01*
X128205356Y-100394644D01*
X126681356Y-98870644D01*
X126548451Y-98781840D01*
X126477943Y-98734728D01*
X126238000Y-98687000D01*
X125962620Y-98687000D01*
X125724546Y-98330697D01*
X125295473Y-98044000D01*
X125724546Y-97757303D01*
X126025990Y-97306160D01*
X126131843Y-96774000D01*
X126025990Y-96241840D01*
X125724546Y-95790697D01*
X125273403Y-95489253D01*
X124741243Y-95383400D01*
X124686757Y-95383400D01*
X124154597Y-95489253D01*
X123844201Y-95696653D01*
X123738697Y-95441942D01*
X123506058Y-95209303D01*
X123202101Y-95083400D01*
X122507750Y-95083400D01*
X122301000Y-95290150D01*
X122301000Y-96647000D01*
X122321000Y-96647000D01*
X122321000Y-96901000D01*
X122301000Y-96901000D01*
X122301000Y-96921000D01*
X122047000Y-96921000D01*
X122047000Y-96901000D01*
X120690150Y-96901000D01*
X120483400Y-97107750D01*
X120483400Y-97802100D01*
X120609303Y-98106058D01*
X120841942Y-98338697D01*
X121089572Y-98441269D01*
X120862010Y-98781840D01*
X120756157Y-99314000D01*
X120862010Y-99846160D01*
X121163454Y-100297303D01*
X121592527Y-100584000D01*
X121163454Y-100870697D01*
X120925380Y-101227000D01*
X120904000Y-101227000D01*
X120664058Y-101274727D01*
X120460644Y-101410644D01*
X118912000Y-102959288D01*
X118912000Y-95745900D01*
X120483400Y-95745900D01*
X120483400Y-96440250D01*
X120690150Y-96647000D01*
X122047000Y-96647000D01*
X122047000Y-95290150D01*
X121840250Y-95083400D01*
X121145899Y-95083400D01*
X120841942Y-95209303D01*
X120609303Y-95441942D01*
X120483400Y-95745900D01*
X118912000Y-95745900D01*
X118912000Y-95328200D01*
X119458200Y-94782000D01*
X124488918Y-94782000D01*
X124548778Y-94806856D01*
X124877779Y-94807143D01*
X125181846Y-94681505D01*
X125414688Y-94449070D01*
X125540856Y-94145222D01*
X125541143Y-93816221D01*
X125415505Y-93512154D01*
X125183070Y-93279312D01*
X124879222Y-93153144D01*
X124550221Y-93152857D01*
X124489370Y-93178000D01*
X119126005Y-93178000D01*
X119126000Y-93177999D01*
X118819088Y-93239049D01*
X118558900Y-93412900D01*
X117542900Y-94428900D01*
X117369049Y-94689088D01*
X117307999Y-94996000D01*
X115389600Y-94996000D01*
X115389600Y-80213274D01*
X117324600Y-80213274D01*
X117675384Y-81062235D01*
X118324349Y-81712334D01*
X119172697Y-82064598D01*
X120091274Y-82065400D01*
X120940235Y-81714616D01*
X121590334Y-81065651D01*
X121942598Y-80217303D01*
X121943400Y-79298726D01*
X121817490Y-78994000D01*
X133727076Y-78994000D01*
X133727076Y-81026000D01*
X133763823Y-81221294D01*
X133879242Y-81400660D01*
X134055351Y-81520990D01*
X134264400Y-81563324D01*
X135991600Y-81563324D01*
X136186894Y-81526577D01*
X136366260Y-81411158D01*
X136449677Y-81289073D01*
X136653182Y-81515965D01*
X137248417Y-81801285D01*
X137278843Y-81807601D01*
X137541000Y-81640805D01*
X137541000Y-80137000D01*
X137521000Y-80137000D01*
X137521000Y-79883000D01*
X137541000Y-79883000D01*
X137541000Y-78379195D01*
X137278843Y-78212399D01*
X137248417Y-78218715D01*
X136653182Y-78504035D01*
X136449028Y-78731650D01*
X136376758Y-78619340D01*
X136200649Y-78499010D01*
X135991600Y-78456676D01*
X134264400Y-78456676D01*
X134069106Y-78493423D01*
X133889740Y-78608842D01*
X133769410Y-78784951D01*
X133727076Y-78994000D01*
X121817490Y-78994000D01*
X121592616Y-78449765D01*
X120943651Y-77799666D01*
X120095303Y-77447402D01*
X119176726Y-77446600D01*
X118327765Y-77797384D01*
X117677666Y-78446349D01*
X117325402Y-79294697D01*
X117324600Y-80213274D01*
X115389600Y-80213274D01*
X115389600Y-75761000D01*
X182935600Y-75761000D01*
X182935600Y-118745000D01*
X182935600Y-118745000D01*
G37*
X182935600Y-118745000D02*
X115389600Y-118745000D01*
X115389600Y-94996000D01*
X117307999Y-94996000D01*
X117308000Y-94996005D01*
X117308000Y-113791995D01*
X117307999Y-113792000D01*
X117369049Y-114098912D01*
X117542900Y-114359100D01*
X118812898Y-115629097D01*
X118812900Y-115629100D01*
X119073088Y-115802951D01*
X119380000Y-115864000D01*
X123059076Y-115864000D01*
X123059076Y-117856000D01*
X123095823Y-118051294D01*
X123211242Y-118230660D01*
X123387351Y-118350990D01*
X123596400Y-118393324D01*
X125323600Y-118393324D01*
X125518894Y-118356577D01*
X125698260Y-118241158D01*
X125818590Y-118065049D01*
X125860924Y-117856000D01*
X125860924Y-117772801D01*
X126016697Y-118005932D01*
X126467840Y-118307376D01*
X127000000Y-118413229D01*
X127532160Y-118307376D01*
X127983303Y-118005932D01*
X128270000Y-117576859D01*
X128556697Y-118005932D01*
X129007840Y-118307376D01*
X129540000Y-118413229D01*
X130072160Y-118307376D01*
X130523303Y-118005932D01*
X130810000Y-117576859D01*
X131096697Y-118005932D01*
X131547840Y-118307376D01*
X132080000Y-118413229D01*
X132612160Y-118307376D01*
X133063303Y-118005932D01*
X133350000Y-117576859D01*
X133636697Y-118005932D01*
X134087840Y-118307376D01*
X134620000Y-118413229D01*
X135152160Y-118307376D01*
X135603303Y-118005932D01*
X135890000Y-117576859D01*
X136176697Y-118005932D01*
X136627840Y-118307376D01*
X137160000Y-118413229D01*
X137692160Y-118307376D01*
X138143303Y-118005932D01*
X138430000Y-117576859D01*
X138716697Y-118005932D01*
X139167840Y-118307376D01*
X139700000Y-118413229D01*
X140232160Y-118307376D01*
X140683303Y-118005932D01*
X140970000Y-117576859D01*
X141256697Y-118005932D01*
X141707840Y-118307376D01*
X142240000Y-118413229D01*
X142772160Y-118307376D01*
X143223303Y-118005932D01*
X143324440Y-117854569D01*
X143324443Y-117854577D01*
X143765182Y-118345965D01*
X144360417Y-118631285D01*
X144390843Y-118637601D01*
X144653000Y-118470805D01*
X144653000Y-116967000D01*
X144633000Y-116967000D01*
X144633000Y-116713000D01*
X144653000Y-116713000D01*
X144653000Y-116693000D01*
X144907000Y-116693000D01*
X144907000Y-116713000D01*
X144927000Y-116713000D01*
X144927000Y-116967000D01*
X144907000Y-116967000D01*
X144907000Y-118470805D01*
X145169157Y-118637601D01*
X145199583Y-118631285D01*
X145794818Y-118345965D01*
X146235557Y-117854577D01*
X146235560Y-117854569D01*
X146336697Y-118005932D01*
X146787840Y-118307376D01*
X147320000Y-118413229D01*
X147852160Y-118307376D01*
X148303303Y-118005932D01*
X148590000Y-117576859D01*
X148876697Y-118005932D01*
X149327840Y-118307376D01*
X149860000Y-118413229D01*
X150392160Y-118307376D01*
X150843303Y-118005932D01*
X151130000Y-117576859D01*
X151416697Y-118005932D01*
X151867840Y-118307376D01*
X152400000Y-118413229D01*
X152932160Y-118307376D01*
X153383303Y-118005932D01*
X153670000Y-117576859D01*
X153956697Y-118005932D01*
X154407840Y-118307376D01*
X154940000Y-118413229D01*
X155472160Y-118307376D01*
X155923303Y-118005932D01*
X156210000Y-117576859D01*
X156496697Y-118005932D01*
X156947840Y-118307376D01*
X157480000Y-118413229D01*
X158012160Y-118307376D01*
X158463303Y-118005932D01*
X158750000Y-117576859D01*
X159036697Y-118005932D01*
X159487840Y-118307376D01*
X160020000Y-118413229D01*
X160552160Y-118307376D01*
X161003303Y-118005932D01*
X161290000Y-117576859D01*
X161576697Y-118005932D01*
X162027840Y-118307376D01*
X162560000Y-118413229D01*
X163092160Y-118307376D01*
X163543303Y-118005932D01*
X163830000Y-117576859D01*
X164116697Y-118005932D01*
X164567840Y-118307376D01*
X165100000Y-118413229D01*
X165632160Y-118307376D01*
X166083303Y-118005932D01*
X166370000Y-117576859D01*
X166656697Y-118005932D01*
X167107840Y-118307376D01*
X167640000Y-118413229D01*
X168172160Y-118307376D01*
X168623303Y-118005932D01*
X168910000Y-117576859D01*
X169196697Y-118005932D01*
X169647840Y-118307376D01*
X170180000Y-118413229D01*
X170712160Y-118307376D01*
X171163303Y-118005932D01*
X171450000Y-117576859D01*
X171736697Y-118005932D01*
X172187840Y-118307376D01*
X172720000Y-118413229D01*
X173252160Y-118307376D01*
X173703303Y-118005932D01*
X173990000Y-117576859D01*
X174276697Y-118005932D01*
X174727840Y-118307376D01*
X175260000Y-118413229D01*
X175792160Y-118307376D01*
X176243303Y-118005932D01*
X176344440Y-117854569D01*
X176344443Y-117854577D01*
X176785182Y-118345965D01*
X177380417Y-118631285D01*
X177410843Y-118637601D01*
X177673000Y-118470805D01*
X177673000Y-116967000D01*
X177927000Y-116967000D01*
X177927000Y-118470805D01*
X178189157Y-118637601D01*
X178219583Y-118631285D01*
X178814818Y-118345965D01*
X179255557Y-117854577D01*
X179474700Y-117231930D01*
X179284802Y-116967000D01*
X177927000Y-116967000D01*
X177673000Y-116967000D01*
X177653000Y-116967000D01*
X177653000Y-116713000D01*
X177673000Y-116713000D01*
X177673000Y-115209195D01*
X177927000Y-115209195D01*
X177927000Y-116713000D01*
X179284802Y-116713000D01*
X179474700Y-116448070D01*
X179255557Y-115825423D01*
X178814818Y-115334035D01*
X178219583Y-115048715D01*
X178189157Y-115042399D01*
X177927000Y-115209195D01*
X177673000Y-115209195D01*
X177410843Y-115042399D01*
X177380417Y-115048715D01*
X176785182Y-115334035D01*
X176344443Y-115825423D01*
X176344440Y-115825431D01*
X176243303Y-115674068D01*
X175792160Y-115372624D01*
X175260000Y-115266771D01*
X174727840Y-115372624D01*
X174276697Y-115674068D01*
X173990000Y-116103141D01*
X173703303Y-115674068D01*
X173252160Y-115372624D01*
X172720000Y-115266771D01*
X172187840Y-115372624D01*
X171736697Y-115674068D01*
X171450000Y-116103141D01*
X171163303Y-115674068D01*
X170712160Y-115372624D01*
X170180000Y-115266771D01*
X169647840Y-115372624D01*
X169196697Y-115674068D01*
X168910000Y-116103141D01*
X168623303Y-115674068D01*
X168172160Y-115372624D01*
X167640000Y-115266771D01*
X167107840Y-115372624D01*
X166656697Y-115674068D01*
X166370000Y-116103141D01*
X166083303Y-115674068D01*
X165632160Y-115372624D01*
X165269275Y-115300442D01*
X165292688Y-115277070D01*
X165418856Y-114973222D01*
X165419143Y-114644221D01*
X165293505Y-114340154D01*
X165061070Y-114107312D01*
X164757222Y-113981144D01*
X164689981Y-113981085D01*
X164161896Y-113453000D01*
X170475965Y-113453000D01*
X170494495Y-113497846D01*
X170726930Y-113730688D01*
X171030778Y-113856856D01*
X171359779Y-113857143D01*
X171663846Y-113731505D01*
X171896688Y-113499070D01*
X172007055Y-113233274D01*
X177268600Y-113233274D01*
X177619384Y-114082235D01*
X178268349Y-114732334D01*
X179116697Y-115084598D01*
X180035274Y-115085400D01*
X180884235Y-114734616D01*
X181534334Y-114085651D01*
X181886598Y-113237303D01*
X181887400Y-112318726D01*
X181536616Y-111469765D01*
X180887651Y-110819666D01*
X180039303Y-110467402D01*
X179120726Y-110466600D01*
X178271765Y-110817384D01*
X177621666Y-111466349D01*
X177269402Y-112314697D01*
X177268600Y-113233274D01*
X172007055Y-113233274D01*
X172022856Y-113195222D01*
X172023143Y-112866221D01*
X171897505Y-112562154D01*
X171665070Y-112329312D01*
X171361222Y-112203144D01*
X171279707Y-112203073D01*
X171201077Y-112150534D01*
X170942000Y-112099000D01*
X161862926Y-112099000D01*
X161863118Y-111879000D01*
X170399371Y-111879000D01*
X170472930Y-111952688D01*
X170776778Y-112078856D01*
X171105779Y-112079143D01*
X171409846Y-111953505D01*
X171642688Y-111721070D01*
X171768856Y-111417222D01*
X171769143Y-111088221D01*
X171643505Y-110784154D01*
X171411070Y-110551312D01*
X171107222Y-110425144D01*
X171023391Y-110425071D01*
X171061000Y-110236000D01*
X171061000Y-108577000D01*
X172177371Y-108577000D01*
X172250930Y-108650688D01*
X172554778Y-108776856D01*
X172883779Y-108777143D01*
X173187846Y-108651505D01*
X173420688Y-108419070D01*
X173546856Y-108115222D01*
X173547143Y-107786221D01*
X173421505Y-107482154D01*
X173189070Y-107249312D01*
X172885222Y-107123144D01*
X172556221Y-107122857D01*
X172252154Y-107248495D01*
X172177519Y-107323000D01*
X170688000Y-107323000D01*
X170448057Y-107370728D01*
X170305233Y-107466160D01*
X170244644Y-107506644D01*
X169990644Y-107760644D01*
X169854728Y-107964057D01*
X169807000Y-108204000D01*
X169807000Y-109976288D01*
X169666288Y-110117000D01*
X166434882Y-110117000D01*
X166435143Y-109818221D01*
X166309505Y-109514154D01*
X166077070Y-109281312D01*
X165773222Y-109155144D01*
X165705981Y-109155085D01*
X163976000Y-107425104D01*
X163976000Y-105925676D01*
X164022688Y-105879070D01*
X164148856Y-105575222D01*
X164149143Y-105246221D01*
X164023505Y-104942154D01*
X163791070Y-104709312D01*
X163487222Y-104583144D01*
X163158221Y-104582857D01*
X162854154Y-104708495D01*
X162621312Y-104940930D01*
X162495144Y-105244778D01*
X162494857Y-105573779D01*
X162620495Y-105877846D01*
X162668000Y-105925434D01*
X162668000Y-107696000D01*
X162717783Y-107946275D01*
X162859552Y-108158448D01*
X164780915Y-110079811D01*
X164780882Y-110117000D01*
X155259104Y-110117000D01*
X155259143Y-110072221D01*
X155133505Y-109768154D01*
X154901070Y-109535312D01*
X154597222Y-109409144D01*
X154268221Y-109408857D01*
X153964154Y-109534495D01*
X153731312Y-109766930D01*
X153605144Y-110070778D01*
X153604857Y-110399779D01*
X153697916Y-110625000D01*
X153421712Y-110625000D01*
X151957052Y-109160340D01*
X151957143Y-109056221D01*
X151835990Y-108763007D01*
X152105846Y-108651505D01*
X152153434Y-108604000D01*
X156464000Y-108604000D01*
X156714275Y-108554217D01*
X156926448Y-108412448D01*
X157069810Y-108269085D01*
X157135779Y-108269143D01*
X157439846Y-108143505D01*
X157607088Y-107976555D01*
X157772930Y-108142688D01*
X158076778Y-108268856D01*
X158405779Y-108269143D01*
X158709846Y-108143505D01*
X158749866Y-108103555D01*
X158788930Y-108142688D01*
X159092778Y-108268856D01*
X159421779Y-108269143D01*
X159725846Y-108143505D01*
X159958688Y-107911070D01*
X160084856Y-107607222D01*
X160085143Y-107278221D01*
X159959505Y-106974154D01*
X159912000Y-106926566D01*
X159912000Y-103886000D01*
X159862217Y-103635725D01*
X159831038Y-103589062D01*
X159831143Y-103468221D01*
X159705505Y-103164154D01*
X159473070Y-102931312D01*
X159169222Y-102805144D01*
X158840221Y-102804857D01*
X158536154Y-102930495D01*
X158303312Y-103162930D01*
X158177144Y-103466778D01*
X158176969Y-103667610D01*
X157949070Y-103439312D01*
X157645222Y-103313144D01*
X157415768Y-103312944D01*
X160279712Y-100449000D01*
X172431371Y-100449000D01*
X172504930Y-100522688D01*
X172808778Y-100648856D01*
X173137779Y-100649143D01*
X173441846Y-100523505D01*
X173674688Y-100291070D01*
X173800856Y-99987222D01*
X173801143Y-99658221D01*
X173675505Y-99354154D01*
X173443070Y-99121312D01*
X173139222Y-98995144D01*
X172810221Y-98994857D01*
X172506154Y-99120495D01*
X172431519Y-99195000D01*
X160020000Y-99195000D01*
X159780058Y-99242727D01*
X159576644Y-99378644D01*
X156712288Y-102243000D01*
X145861104Y-102243000D01*
X145861143Y-102198221D01*
X145735505Y-101894154D01*
X145503070Y-101661312D01*
X145199222Y-101535144D01*
X144870221Y-101534857D01*
X144645000Y-101627916D01*
X144645000Y-94804179D01*
X166279457Y-94804179D01*
X166405095Y-95108246D01*
X166637530Y-95341088D01*
X166698337Y-95366337D01*
X167453900Y-96121900D01*
X167714088Y-96295751D01*
X168021000Y-96356801D01*
X168021005Y-96356800D01*
X172634618Y-96356800D01*
X172694478Y-96381656D01*
X173023479Y-96381943D01*
X173327546Y-96256305D01*
X173560388Y-96023870D01*
X173686556Y-95720022D01*
X173686843Y-95391021D01*
X173561205Y-95086954D01*
X173328770Y-94854112D01*
X173024922Y-94727944D01*
X172695921Y-94727657D01*
X172635070Y-94752800D01*
X168353200Y-94752800D01*
X167832856Y-94232456D01*
X167808105Y-94172554D01*
X167575670Y-93939712D01*
X167271822Y-93813544D01*
X166942821Y-93813257D01*
X166638754Y-93938895D01*
X166405912Y-94171330D01*
X166279744Y-94475178D01*
X166279457Y-94804179D01*
X144645000Y-94804179D01*
X144645000Y-90889396D01*
X164471115Y-90889396D01*
X164720963Y-91494074D01*
X165183192Y-91957111D01*
X165787434Y-92208014D01*
X166441696Y-92208585D01*
X167046374Y-91958737D01*
X167509411Y-91496508D01*
X167760314Y-90892266D01*
X167760885Y-90238004D01*
X167511037Y-89633326D01*
X167048808Y-89170289D01*
X166444566Y-88919386D01*
X165790304Y-88918815D01*
X165185626Y-89168663D01*
X164722589Y-89630892D01*
X164471686Y-90235134D01*
X164471115Y-90889396D01*
X144645000Y-90889396D01*
X144645000Y-83566000D01*
X144597272Y-83326057D01*
X144461356Y-83122644D01*
X143375000Y-82036288D01*
X143375000Y-81414006D01*
X143731303Y-81175932D01*
X144018000Y-80746859D01*
X144304697Y-81175932D01*
X144755840Y-81477376D01*
X145288000Y-81583229D01*
X145820160Y-81477376D01*
X146271303Y-81175932D01*
X146434920Y-80931061D01*
X170415877Y-80931061D01*
X170710670Y-81586965D01*
X171234027Y-82080129D01*
X171798940Y-82314115D01*
X172085000Y-82149314D01*
X172085000Y-80645000D01*
X170580123Y-80645000D01*
X170415877Y-80931061D01*
X146434920Y-80931061D01*
X146572747Y-80724789D01*
X146678600Y-80192629D01*
X146678600Y-80104939D01*
X170415877Y-80104939D01*
X170580123Y-80391000D01*
X172085000Y-80391000D01*
X172085000Y-78886686D01*
X172339000Y-78886686D01*
X172339000Y-80391000D01*
X172359000Y-80391000D01*
X172359000Y-80645000D01*
X172339000Y-80645000D01*
X172339000Y-82149314D01*
X172625060Y-82314115D01*
X173189973Y-82080129D01*
X173363072Y-81917016D01*
X173526951Y-82028990D01*
X173736000Y-82071324D01*
X175768000Y-82071324D01*
X175963294Y-82034577D01*
X176142660Y-81919158D01*
X176262990Y-81743049D01*
X176305324Y-81534000D01*
X176305324Y-79502000D01*
X176268577Y-79306706D01*
X176153158Y-79127340D01*
X175977049Y-79007010D01*
X175768000Y-78964676D01*
X173736000Y-78964676D01*
X173540706Y-79001423D01*
X173361340Y-79116842D01*
X173361128Y-79117152D01*
X173189973Y-78955871D01*
X172625060Y-78721885D01*
X172339000Y-78886686D01*
X172085000Y-78886686D01*
X171798940Y-78721885D01*
X171234027Y-78955871D01*
X170710670Y-79449035D01*
X170415877Y-80104939D01*
X146678600Y-80104939D01*
X146678600Y-79827371D01*
X146572747Y-79295211D01*
X146271303Y-78844068D01*
X145820160Y-78542624D01*
X145288000Y-78436771D01*
X144755840Y-78542624D01*
X144304697Y-78844068D01*
X144018000Y-79273141D01*
X143731303Y-78844068D01*
X143280160Y-78542624D01*
X142748000Y-78436771D01*
X142215840Y-78542624D01*
X141764697Y-78844068D01*
X141478000Y-79273141D01*
X141191303Y-78844068D01*
X140740160Y-78542624D01*
X140208000Y-78436771D01*
X139675840Y-78542624D01*
X139224697Y-78844068D01*
X139123560Y-78995431D01*
X139123557Y-78995423D01*
X138682818Y-78504035D01*
X138087583Y-78218715D01*
X138057157Y-78212399D01*
X137795000Y-78379195D01*
X137795000Y-79883000D01*
X137815000Y-79883000D01*
X137815000Y-80137000D01*
X137795000Y-80137000D01*
X137795000Y-81640805D01*
X138057157Y-81807601D01*
X138087583Y-81801285D01*
X138682818Y-81515965D01*
X139123557Y-81024577D01*
X139123560Y-81024569D01*
X139224697Y-81175932D01*
X139581000Y-81414006D01*
X139581000Y-83566000D01*
X139628728Y-83805943D01*
X139764644Y-84009356D01*
X142883000Y-87127712D01*
X142883000Y-102805118D01*
X142584221Y-102804857D01*
X142280154Y-102930495D01*
X142047312Y-103162930D01*
X141921144Y-103466778D01*
X141920857Y-103795779D01*
X142046495Y-104099846D01*
X142071000Y-104124394D01*
X142071000Y-105853074D01*
X141822221Y-105852857D01*
X141518154Y-105978495D01*
X141370000Y-106126390D01*
X141370000Y-102427127D01*
X141387779Y-102427143D01*
X141691846Y-102301505D01*
X141924688Y-102069070D01*
X142050856Y-101765222D01*
X142051143Y-101436221D01*
X141925505Y-101132154D01*
X141860312Y-101066847D01*
X141945846Y-101031505D01*
X142178688Y-100799070D01*
X142304856Y-100495222D01*
X142305143Y-100166221D01*
X142179505Y-99862154D01*
X141947070Y-99629312D01*
X141643222Y-99503144D01*
X141314221Y-99502857D01*
X141010154Y-99628495D01*
X140777312Y-99860930D01*
X140651144Y-100164778D01*
X140651085Y-100232019D01*
X139237552Y-101645552D01*
X139095783Y-101857725D01*
X139084000Y-101916962D01*
X139084000Y-101059538D01*
X139151846Y-101031505D01*
X139384688Y-100799070D01*
X139510856Y-100495222D01*
X139511143Y-100166221D01*
X139385505Y-99862154D01*
X139153070Y-99629312D01*
X138849222Y-99503144D01*
X138520221Y-99502857D01*
X138216154Y-99628495D01*
X137983312Y-99860930D01*
X137857144Y-100164778D01*
X137857037Y-100286949D01*
X137825783Y-100333725D01*
X137776000Y-100584000D01*
X137776000Y-114537104D01*
X137018109Y-115294995D01*
X136627840Y-115372624D01*
X136176697Y-115674068D01*
X135890000Y-116103141D01*
X135603303Y-115674068D01*
X135274000Y-115454035D01*
X135274000Y-100395127D01*
X135291779Y-100395143D01*
X135595846Y-100269505D01*
X135828688Y-100037070D01*
X135954856Y-99733222D01*
X135955143Y-99404221D01*
X135829505Y-99100154D01*
X135597070Y-98867312D01*
X135293222Y-98741144D01*
X134964221Y-98740857D01*
X134660154Y-98866495D01*
X134427312Y-99098930D01*
X134301144Y-99402778D01*
X134301085Y-99470019D01*
X134157552Y-99613552D01*
X134015783Y-99825725D01*
X133966000Y-100076000D01*
X133966000Y-115454035D01*
X133636697Y-115674068D01*
X133350000Y-116103141D01*
X133063303Y-115674068D01*
X132734000Y-115454035D01*
X132734000Y-107663538D01*
X132801846Y-107635505D01*
X133034688Y-107403070D01*
X133160856Y-107099222D01*
X133161143Y-106770221D01*
X133035505Y-106466154D01*
X132803070Y-106233312D01*
X132499222Y-106107144D01*
X132170221Y-106106857D01*
X131866154Y-106232495D01*
X131633312Y-106464930D01*
X131507144Y-106768778D01*
X131507037Y-106890949D01*
X131475783Y-106937725D01*
X131426000Y-107188000D01*
X131426000Y-114316853D01*
X131229222Y-114235144D01*
X130900221Y-114234857D01*
X130839370Y-114260000D01*
X124177082Y-114260000D01*
X124117222Y-114235144D01*
X123788221Y-114234857D01*
X123727370Y-114260000D01*
X119712199Y-114260000D01*
X118912000Y-113459800D01*
X118912000Y-109130712D01*
X120460644Y-110679356D01*
X120664058Y-110815273D01*
X120904000Y-110863000D01*
X125730000Y-110863000D01*
X125969943Y-110815272D01*
X126173356Y-110679356D01*
X128459356Y-108393356D01*
X128459689Y-108392857D01*
X128595272Y-108189943D01*
X128643000Y-107950000D01*
X128643000Y-106685712D01*
X130745356Y-104583356D01*
X130749785Y-104576728D01*
X130881272Y-104379943D01*
X130929000Y-104140000D01*
X130929000Y-103951104D01*
X130973779Y-103951143D01*
X131277846Y-103825505D01*
X131510688Y-103593070D01*
X131636856Y-103289222D01*
X131637143Y-102960221D01*
X131511505Y-102656154D01*
X131279070Y-102423312D01*
X130975222Y-102297144D01*
X130646221Y-102296857D01*
X130342154Y-102422495D01*
X130109312Y-102654930D01*
X129996684Y-102926169D01*
X129705222Y-102805144D01*
X129376221Y-102804857D01*
X129072154Y-102930495D01*
X128839312Y-103162930D01*
X128713144Y-103466778D01*
X128712857Y-103795779D01*
X128721819Y-103817469D01*
X128389000Y-104150288D01*
X128389000Y-100838000D01*
X128341272Y-100598057D01*
X128205356Y-100394644D01*
X126681356Y-98870644D01*
X126548451Y-98781840D01*
X126477943Y-98734728D01*
X126238000Y-98687000D01*
X125962620Y-98687000D01*
X125724546Y-98330697D01*
X125295473Y-98044000D01*
X125724546Y-97757303D01*
X126025990Y-97306160D01*
X126131843Y-96774000D01*
X126025990Y-96241840D01*
X125724546Y-95790697D01*
X125273403Y-95489253D01*
X124741243Y-95383400D01*
X124686757Y-95383400D01*
X124154597Y-95489253D01*
X123844201Y-95696653D01*
X123738697Y-95441942D01*
X123506058Y-95209303D01*
X123202101Y-95083400D01*
X122507750Y-95083400D01*
X122301000Y-95290150D01*
X122301000Y-96647000D01*
X122321000Y-96647000D01*
X122321000Y-96901000D01*
X122301000Y-96901000D01*
X122301000Y-96921000D01*
X122047000Y-96921000D01*
X122047000Y-96901000D01*
X120690150Y-96901000D01*
X120483400Y-97107750D01*
X120483400Y-97802100D01*
X120609303Y-98106058D01*
X120841942Y-98338697D01*
X121089572Y-98441269D01*
X120862010Y-98781840D01*
X120756157Y-99314000D01*
X120862010Y-99846160D01*
X121163454Y-100297303D01*
X121592527Y-100584000D01*
X121163454Y-100870697D01*
X120925380Y-101227000D01*
X120904000Y-101227000D01*
X120664058Y-101274727D01*
X120460644Y-101410644D01*
X118912000Y-102959288D01*
X118912000Y-95745900D01*
X120483400Y-95745900D01*
X120483400Y-96440250D01*
X120690150Y-96647000D01*
X122047000Y-96647000D01*
X122047000Y-95290150D01*
X121840250Y-95083400D01*
X121145899Y-95083400D01*
X120841942Y-95209303D01*
X120609303Y-95441942D01*
X120483400Y-95745900D01*
X118912000Y-95745900D01*
X118912000Y-95328200D01*
X119458200Y-94782000D01*
X124488918Y-94782000D01*
X124548778Y-94806856D01*
X124877779Y-94807143D01*
X125181846Y-94681505D01*
X125414688Y-94449070D01*
X125540856Y-94145222D01*
X125541143Y-93816221D01*
X125415505Y-93512154D01*
X125183070Y-93279312D01*
X124879222Y-93153144D01*
X124550221Y-93152857D01*
X124489370Y-93178000D01*
X119126005Y-93178000D01*
X119126000Y-93177999D01*
X118819088Y-93239049D01*
X118558900Y-93412900D01*
X117542900Y-94428900D01*
X117369049Y-94689088D01*
X117307999Y-94996000D01*
X115389600Y-94996000D01*
X115389600Y-80213274D01*
X117324600Y-80213274D01*
X117675384Y-81062235D01*
X118324349Y-81712334D01*
X119172697Y-82064598D01*
X120091274Y-82065400D01*
X120940235Y-81714616D01*
X121590334Y-81065651D01*
X121942598Y-80217303D01*
X121943400Y-79298726D01*
X121817490Y-78994000D01*
X133727076Y-78994000D01*
X133727076Y-81026000D01*
X133763823Y-81221294D01*
X133879242Y-81400660D01*
X134055351Y-81520990D01*
X134264400Y-81563324D01*
X135991600Y-81563324D01*
X136186894Y-81526577D01*
X136366260Y-81411158D01*
X136449677Y-81289073D01*
X136653182Y-81515965D01*
X137248417Y-81801285D01*
X137278843Y-81807601D01*
X137541000Y-81640805D01*
X137541000Y-80137000D01*
X137521000Y-80137000D01*
X137521000Y-79883000D01*
X137541000Y-79883000D01*
X137541000Y-78379195D01*
X137278843Y-78212399D01*
X137248417Y-78218715D01*
X136653182Y-78504035D01*
X136449028Y-78731650D01*
X136376758Y-78619340D01*
X136200649Y-78499010D01*
X135991600Y-78456676D01*
X134264400Y-78456676D01*
X134069106Y-78493423D01*
X133889740Y-78608842D01*
X133769410Y-78784951D01*
X133727076Y-78994000D01*
X121817490Y-78994000D01*
X121592616Y-78449765D01*
X120943651Y-77799666D01*
X120095303Y-77447402D01*
X119176726Y-77446600D01*
X118327765Y-77797384D01*
X117677666Y-78446349D01*
X117325402Y-79294697D01*
X117324600Y-80213274D01*
X115389600Y-80213274D01*
X115389600Y-75761000D01*
X182935600Y-75761000D01*
X182935600Y-118745000D01*
G36*
X144868778Y-103188856D02*
X144974236Y-103188948D01*
X145098644Y-103313356D01*
X145302057Y-103449272D01*
X145542000Y-103497000D01*
X156953547Y-103497000D01*
X156779312Y-103670930D01*
X156653144Y-103974778D01*
X156652857Y-104303779D01*
X156778495Y-104607846D01*
X157010930Y-104840688D01*
X157314778Y-104966856D01*
X157334000Y-104966873D01*
X157334000Y-106696853D01*
X157137222Y-106615144D01*
X156808221Y-106614857D01*
X156504154Y-106740495D01*
X156271312Y-106972930D01*
X156145144Y-107276778D01*
X156145127Y-107296000D01*
X152153676Y-107296000D01*
X152107070Y-107249312D01*
X151803222Y-107123144D01*
X151474221Y-107122857D01*
X151170154Y-107248495D01*
X150937312Y-107480930D01*
X150811144Y-107784778D01*
X150810857Y-108113779D01*
X150932010Y-108406993D01*
X150662154Y-108518495D01*
X150429312Y-108750930D01*
X150303144Y-109054778D01*
X150302857Y-109383779D01*
X150428495Y-109687846D01*
X150660930Y-109920688D01*
X150964778Y-110046856D01*
X151070236Y-110046948D01*
X152065224Y-111041936D01*
X151803222Y-110933144D01*
X151474221Y-110932857D01*
X151170154Y-111058495D01*
X150937312Y-111290930D01*
X150811144Y-111594778D01*
X150810857Y-111923779D01*
X150883257Y-112099000D01*
X146584423Y-112099000D01*
X143425000Y-108939578D01*
X143425000Y-106672697D01*
X143598778Y-106744856D01*
X143927779Y-106745143D01*
X144231846Y-106619505D01*
X144464688Y-106387070D01*
X144590856Y-106083222D01*
X144591143Y-105754221D01*
X144559635Y-105677967D01*
X144739846Y-105603505D01*
X144972688Y-105371070D01*
X145098856Y-105067222D01*
X145099143Y-104738221D01*
X144973505Y-104434154D01*
X144741070Y-104201312D01*
X144645000Y-104161420D01*
X144645000Y-103095936D01*
X144868778Y-103188856D01*
X144868778Y-103188856D01*
G37*
X144868778Y-103188856D02*
X144974236Y-103188948D01*
X145098644Y-103313356D01*
X145302057Y-103449272D01*
X145542000Y-103497000D01*
X156953547Y-103497000D01*
X156779312Y-103670930D01*
X156653144Y-103974778D01*
X156652857Y-104303779D01*
X156778495Y-104607846D01*
X157010930Y-104840688D01*
X157314778Y-104966856D01*
X157334000Y-104966873D01*
X157334000Y-106696853D01*
X157137222Y-106615144D01*
X156808221Y-106614857D01*
X156504154Y-106740495D01*
X156271312Y-106972930D01*
X156145144Y-107276778D01*
X156145127Y-107296000D01*
X152153676Y-107296000D01*
X152107070Y-107249312D01*
X151803222Y-107123144D01*
X151474221Y-107122857D01*
X151170154Y-107248495D01*
X150937312Y-107480930D01*
X150811144Y-107784778D01*
X150810857Y-108113779D01*
X150932010Y-108406993D01*
X150662154Y-108518495D01*
X150429312Y-108750930D01*
X150303144Y-109054778D01*
X150302857Y-109383779D01*
X150428495Y-109687846D01*
X150660930Y-109920688D01*
X150964778Y-110046856D01*
X151070236Y-110046948D01*
X152065224Y-111041936D01*
X151803222Y-110933144D01*
X151474221Y-110932857D01*
X151170154Y-111058495D01*
X150937312Y-111290930D01*
X150811144Y-111594778D01*
X150810857Y-111923779D01*
X150883257Y-112099000D01*
X146584423Y-112099000D01*
X143425000Y-108939578D01*
X143425000Y-106672697D01*
X143598778Y-106744856D01*
X143927779Y-106745143D01*
X144231846Y-106619505D01*
X144464688Y-106387070D01*
X144590856Y-106083222D01*
X144591143Y-105754221D01*
X144559635Y-105677967D01*
X144739846Y-105603505D01*
X144972688Y-105371070D01*
X145098856Y-105067222D01*
X145099143Y-104738221D01*
X144973505Y-104434154D01*
X144741070Y-104201312D01*
X144645000Y-104161420D01*
X144645000Y-103095936D01*
X144868778Y-103188856D01*
G36*
X182935600Y-138335600D02*
X115389600Y-138335600D01*
X115389600Y-126655779D01*
X118806857Y-126655779D01*
X118832000Y-126716630D01*
X118832000Y-129031995D01*
X118831999Y-129032000D01*
X118893049Y-129338912D01*
X119066900Y-129599100D01*
X119161744Y-129693943D01*
X119186495Y-129753846D01*
X119418930Y-129986688D01*
X119722778Y-130112856D01*
X120051779Y-130113143D01*
X120355846Y-129987505D01*
X120385624Y-129957779D01*
X127696857Y-129957779D01*
X127822495Y-130261846D01*
X127870000Y-130309434D01*
X127870000Y-136898324D01*
X127823312Y-136944930D01*
X127697144Y-137248778D01*
X127696857Y-137577779D01*
X127822495Y-137881846D01*
X128054930Y-138114688D01*
X128358778Y-138240856D01*
X128687779Y-138241143D01*
X128991846Y-138115505D01*
X129224688Y-137883070D01*
X129350856Y-137579222D01*
X129351143Y-137250221D01*
X129225505Y-136946154D01*
X129178000Y-136898566D01*
X129178000Y-130309676D01*
X129224688Y-130263070D01*
X129350856Y-129959222D01*
X129351078Y-129703779D01*
X137856857Y-129703779D01*
X137982495Y-130007846D01*
X138214930Y-130240688D01*
X138284000Y-130269368D01*
X138284000Y-136644324D01*
X138237312Y-136690930D01*
X138111144Y-136994778D01*
X138110857Y-137323779D01*
X138236495Y-137627846D01*
X138468930Y-137860688D01*
X138772778Y-137986856D01*
X139101779Y-137987143D01*
X139405846Y-137861505D01*
X139638688Y-137629070D01*
X139764856Y-137325222D01*
X139765143Y-136996221D01*
X139639505Y-136692154D01*
X139592000Y-136644566D01*
X139592000Y-130211779D01*
X148270857Y-130211779D01*
X148396495Y-130515846D01*
X148444000Y-130563434D01*
X148444000Y-136644324D01*
X148397312Y-136690930D01*
X148271144Y-136994778D01*
X148270857Y-137323779D01*
X148396495Y-137627846D01*
X148628930Y-137860688D01*
X148932778Y-137986856D01*
X149261779Y-137987143D01*
X149565846Y-137861505D01*
X149798688Y-137629070D01*
X149924856Y-137325222D01*
X149925143Y-136996221D01*
X149799505Y-136692154D01*
X149752000Y-136644566D01*
X149752000Y-135331274D01*
X176252600Y-135331274D01*
X176603384Y-136180235D01*
X177252349Y-136830334D01*
X178100697Y-137182598D01*
X179019274Y-137183400D01*
X179868235Y-136832616D01*
X180518334Y-136183651D01*
X180870598Y-135335303D01*
X180871400Y-134416726D01*
X180520616Y-133567765D01*
X179871651Y-132917666D01*
X179023303Y-132565402D01*
X178104726Y-132564600D01*
X177255765Y-132915384D01*
X176605666Y-133564349D01*
X176253402Y-134412697D01*
X176252600Y-135331274D01*
X149752000Y-135331274D01*
X149752000Y-130563676D01*
X149798688Y-130517070D01*
X149924856Y-130213222D01*
X149925143Y-129884221D01*
X149799505Y-129580154D01*
X149567070Y-129347312D01*
X149263222Y-129221144D01*
X148934221Y-129220857D01*
X148630154Y-129346495D01*
X148397312Y-129578930D01*
X148271144Y-129882778D01*
X148270857Y-130211779D01*
X139592000Y-130211779D01*
X139592000Y-129794000D01*
X139542217Y-129543725D01*
X139511038Y-129497062D01*
X139511143Y-129376221D01*
X139385505Y-129072154D01*
X139153070Y-128839312D01*
X138849222Y-128713144D01*
X138520221Y-128712857D01*
X138216154Y-128838495D01*
X137983312Y-129070930D01*
X137857144Y-129374778D01*
X137856857Y-129703779D01*
X129351078Y-129703779D01*
X129351143Y-129630221D01*
X129225505Y-129326154D01*
X128993070Y-129093312D01*
X128689222Y-128967144D01*
X128360221Y-128966857D01*
X128056154Y-129092495D01*
X127823312Y-129324930D01*
X127697144Y-129628778D01*
X127696857Y-129957779D01*
X120385624Y-129957779D01*
X120588688Y-129755070D01*
X120714856Y-129451222D01*
X120715143Y-129122221D01*
X120589505Y-128818154D01*
X120436000Y-128664380D01*
X120436000Y-127254000D01*
X176480771Y-127254000D01*
X176598225Y-127844481D01*
X176882504Y-128269935D01*
X176842706Y-128277423D01*
X176663340Y-128392842D01*
X176543010Y-128568951D01*
X176500676Y-128778000D01*
X176500676Y-130810000D01*
X176537423Y-131005294D01*
X176652842Y-131184660D01*
X176828951Y-131304990D01*
X177038000Y-131347324D01*
X179070000Y-131347324D01*
X179265294Y-131310577D01*
X179444660Y-131195158D01*
X179564990Y-131019049D01*
X179607324Y-130810000D01*
X179607324Y-128778000D01*
X179570577Y-128582706D01*
X179455158Y-128403340D01*
X179279049Y-128283010D01*
X179224183Y-128271899D01*
X179509775Y-127844481D01*
X179627229Y-127254000D01*
X179509775Y-126663519D01*
X179175295Y-126162934D01*
X178674710Y-125828454D01*
X178084229Y-125711000D01*
X178023771Y-125711000D01*
X177433290Y-125828454D01*
X176932705Y-126162934D01*
X176598225Y-126663519D01*
X176480771Y-127254000D01*
X120436000Y-127254000D01*
X120436000Y-126717082D01*
X120460856Y-126657222D01*
X120461143Y-126328221D01*
X120335505Y-126024154D01*
X120103070Y-125791312D01*
X119799222Y-125665144D01*
X119470221Y-125664857D01*
X119166154Y-125790495D01*
X118933312Y-126022930D01*
X118807144Y-126326778D01*
X118806857Y-126655779D01*
X115389600Y-126655779D01*
X115389600Y-123353779D01*
X128458857Y-123353779D01*
X128584495Y-123657846D01*
X128816930Y-123890688D01*
X129120778Y-124016856D01*
X129449779Y-124017143D01*
X129753846Y-123891505D01*
X129801434Y-123844000D01*
X139146499Y-123844000D01*
X138999312Y-123990930D01*
X138873144Y-124294778D01*
X138872857Y-124623779D01*
X138998495Y-124927846D01*
X139230930Y-125160688D01*
X139534778Y-125286856D01*
X139602019Y-125286915D01*
X139999552Y-125684448D01*
X140211725Y-125826217D01*
X140462000Y-125876000D01*
X164846000Y-125876000D01*
X165096275Y-125826217D01*
X165308448Y-125684448D01*
X165450217Y-125472275D01*
X165500000Y-125222000D01*
X165450217Y-124971725D01*
X165419038Y-124925062D01*
X165419143Y-124804221D01*
X165293505Y-124500154D01*
X165061070Y-124267312D01*
X164757222Y-124141144D01*
X164428221Y-124140857D01*
X164124154Y-124266495D01*
X163891312Y-124498930D01*
X163862632Y-124568000D01*
X162624906Y-124568000D01*
X162625143Y-124296221D01*
X162499505Y-123992154D01*
X162267070Y-123759312D01*
X161963222Y-123633144D01*
X161634221Y-123632857D01*
X161330154Y-123758495D01*
X161282566Y-123806000D01*
X160592906Y-123806000D01*
X160593143Y-123534221D01*
X160533963Y-123390996D01*
X160552160Y-123387376D01*
X161003303Y-123085932D01*
X161290000Y-122656859D01*
X161576697Y-123085932D01*
X162027840Y-123387376D01*
X162560000Y-123493229D01*
X163092160Y-123387376D01*
X163543303Y-123085932D01*
X163830000Y-122656859D01*
X164116697Y-123085932D01*
X164567840Y-123387376D01*
X165100000Y-123493229D01*
X165632160Y-123387376D01*
X166083303Y-123085932D01*
X166370000Y-122656859D01*
X166656697Y-123085932D01*
X167107840Y-123387376D01*
X167640000Y-123493229D01*
X168172160Y-123387376D01*
X168623303Y-123085932D01*
X168910000Y-122656859D01*
X169196697Y-123085932D01*
X169647840Y-123387376D01*
X170180000Y-123493229D01*
X170712160Y-123387376D01*
X171163303Y-123085932D01*
X171450000Y-122656859D01*
X171736697Y-123085932D01*
X172187840Y-123387376D01*
X172720000Y-123493229D01*
X173252160Y-123387376D01*
X173703303Y-123085932D01*
X173990000Y-122656859D01*
X174276697Y-123085932D01*
X174727840Y-123387376D01*
X175260000Y-123493229D01*
X175792160Y-123387376D01*
X176243303Y-123085932D01*
X176344440Y-122934569D01*
X176344443Y-122934577D01*
X176785182Y-123425965D01*
X177380417Y-123711285D01*
X177410843Y-123717601D01*
X177673000Y-123550805D01*
X177673000Y-122047000D01*
X177927000Y-122047000D01*
X177927000Y-123550805D01*
X178189157Y-123717601D01*
X178219583Y-123711285D01*
X178814818Y-123425965D01*
X179255557Y-122934577D01*
X179474700Y-122311930D01*
X179284802Y-122047000D01*
X177927000Y-122047000D01*
X177673000Y-122047000D01*
X177653000Y-122047000D01*
X177653000Y-121793000D01*
X177673000Y-121793000D01*
X177673000Y-120289195D01*
X177927000Y-120289195D01*
X177927000Y-121793000D01*
X179284802Y-121793000D01*
X179474700Y-121528070D01*
X179255557Y-120905423D01*
X178814818Y-120414035D01*
X178219583Y-120128715D01*
X178189157Y-120122399D01*
X177927000Y-120289195D01*
X177673000Y-120289195D01*
X177410843Y-120122399D01*
X177380417Y-120128715D01*
X176785182Y-120414035D01*
X176344443Y-120905423D01*
X176344440Y-120905431D01*
X176243303Y-120754068D01*
X175792160Y-120452624D01*
X175260000Y-120346771D01*
X174727840Y-120452624D01*
X174276697Y-120754068D01*
X173990000Y-121183141D01*
X173703303Y-120754068D01*
X173252160Y-120452624D01*
X172720000Y-120346771D01*
X172187840Y-120452624D01*
X171736697Y-120754068D01*
X171450000Y-121183141D01*
X171163303Y-120754068D01*
X170712160Y-120452624D01*
X170180000Y-120346771D01*
X169647840Y-120452624D01*
X169196697Y-120754068D01*
X168910000Y-121183141D01*
X168623303Y-120754068D01*
X168172160Y-120452624D01*
X167640000Y-120346771D01*
X167107840Y-120452624D01*
X166656697Y-120754068D01*
X166370000Y-121183141D01*
X166083303Y-120754068D01*
X165632160Y-120452624D01*
X165100000Y-120346771D01*
X164567840Y-120452624D01*
X164116697Y-120754068D01*
X163830000Y-121183141D01*
X163543303Y-120754068D01*
X163092160Y-120452624D01*
X162560000Y-120346771D01*
X162027840Y-120452624D01*
X161576697Y-120754068D01*
X161290000Y-121183141D01*
X161003303Y-120754068D01*
X160552160Y-120452624D01*
X160020000Y-120346771D01*
X159487840Y-120452624D01*
X159036697Y-120754068D01*
X158750000Y-121183141D01*
X158463303Y-120754068D01*
X158012160Y-120452624D01*
X157480000Y-120346771D01*
X156947840Y-120452624D01*
X156496697Y-120754068D01*
X156210000Y-121183141D01*
X155923303Y-120754068D01*
X155472160Y-120452624D01*
X154940000Y-120346771D01*
X154407840Y-120452624D01*
X153956697Y-120754068D01*
X153670000Y-121183141D01*
X153383303Y-120754068D01*
X152932160Y-120452624D01*
X152400000Y-120346771D01*
X151867840Y-120452624D01*
X151416697Y-120754068D01*
X151130000Y-121183141D01*
X150843303Y-120754068D01*
X150392160Y-120452624D01*
X149860000Y-120346771D01*
X149327840Y-120452624D01*
X148876697Y-120754068D01*
X148590000Y-121183141D01*
X148303303Y-120754068D01*
X147852160Y-120452624D01*
X147320000Y-120346771D01*
X146787840Y-120452624D01*
X146446300Y-120680834D01*
X146344697Y-120435542D01*
X146112058Y-120202903D01*
X145808100Y-120077000D01*
X145113750Y-120077000D01*
X144907000Y-120283750D01*
X144907000Y-121793000D01*
X144927000Y-121793000D01*
X144927000Y-122047000D01*
X144907000Y-122047000D01*
X144907000Y-122067000D01*
X144653000Y-122067000D01*
X144653000Y-122047000D01*
X143296150Y-122047000D01*
X143089400Y-122253750D01*
X143089400Y-123044000D01*
X142510896Y-123044000D01*
X140924448Y-121457552D01*
X140712275Y-121315783D01*
X140462000Y-121266000D01*
X139453676Y-121266000D01*
X139407070Y-121219312D01*
X139103222Y-121093144D01*
X138774221Y-121092857D01*
X138470154Y-121218495D01*
X138237312Y-121450930D01*
X138111144Y-121754778D01*
X138110857Y-122083779D01*
X138236495Y-122387846D01*
X138384390Y-122536000D01*
X129801676Y-122536000D01*
X129755070Y-122489312D01*
X129451222Y-122363144D01*
X129122221Y-122362857D01*
X128818154Y-122488495D01*
X128585312Y-122720930D01*
X128459144Y-123024778D01*
X128458857Y-123353779D01*
X115389600Y-123353779D01*
X115389600Y-120739499D01*
X143089400Y-120739499D01*
X143089400Y-121586250D01*
X143296150Y-121793000D01*
X144653000Y-121793000D01*
X144653000Y-120283750D01*
X144446250Y-120077000D01*
X143751900Y-120077000D01*
X143447942Y-120202903D01*
X143215303Y-120435542D01*
X143089400Y-120739499D01*
X115389600Y-120739499D01*
X115389600Y-119761000D01*
X182935600Y-119761000D01*
X182935600Y-138335600D01*
X182935600Y-138335600D01*
G37*
X182935600Y-138335600D02*
X115389600Y-138335600D01*
X115389600Y-126655779D01*
X118806857Y-126655779D01*
X118832000Y-126716630D01*
X118832000Y-129031995D01*
X118831999Y-129032000D01*
X118893049Y-129338912D01*
X119066900Y-129599100D01*
X119161744Y-129693943D01*
X119186495Y-129753846D01*
X119418930Y-129986688D01*
X119722778Y-130112856D01*
X120051779Y-130113143D01*
X120355846Y-129987505D01*
X120385624Y-129957779D01*
X127696857Y-129957779D01*
X127822495Y-130261846D01*
X127870000Y-130309434D01*
X127870000Y-136898324D01*
X127823312Y-136944930D01*
X127697144Y-137248778D01*
X127696857Y-137577779D01*
X127822495Y-137881846D01*
X128054930Y-138114688D01*
X128358778Y-138240856D01*
X128687779Y-138241143D01*
X128991846Y-138115505D01*
X129224688Y-137883070D01*
X129350856Y-137579222D01*
X129351143Y-137250221D01*
X129225505Y-136946154D01*
X129178000Y-136898566D01*
X129178000Y-130309676D01*
X129224688Y-130263070D01*
X129350856Y-129959222D01*
X129351078Y-129703779D01*
X137856857Y-129703779D01*
X137982495Y-130007846D01*
X138214930Y-130240688D01*
X138284000Y-130269368D01*
X138284000Y-136644324D01*
X138237312Y-136690930D01*
X138111144Y-136994778D01*
X138110857Y-137323779D01*
X138236495Y-137627846D01*
X138468930Y-137860688D01*
X138772778Y-137986856D01*
X139101779Y-137987143D01*
X139405846Y-137861505D01*
X139638688Y-137629070D01*
X139764856Y-137325222D01*
X139765143Y-136996221D01*
X139639505Y-136692154D01*
X139592000Y-136644566D01*
X139592000Y-130211779D01*
X148270857Y-130211779D01*
X148396495Y-130515846D01*
X148444000Y-130563434D01*
X148444000Y-136644324D01*
X148397312Y-136690930D01*
X148271144Y-136994778D01*
X148270857Y-137323779D01*
X148396495Y-137627846D01*
X148628930Y-137860688D01*
X148932778Y-137986856D01*
X149261779Y-137987143D01*
X149565846Y-137861505D01*
X149798688Y-137629070D01*
X149924856Y-137325222D01*
X149925143Y-136996221D01*
X149799505Y-136692154D01*
X149752000Y-136644566D01*
X149752000Y-135331274D01*
X176252600Y-135331274D01*
X176603384Y-136180235D01*
X177252349Y-136830334D01*
X178100697Y-137182598D01*
X179019274Y-137183400D01*
X179868235Y-136832616D01*
X180518334Y-136183651D01*
X180870598Y-135335303D01*
X180871400Y-134416726D01*
X180520616Y-133567765D01*
X179871651Y-132917666D01*
X179023303Y-132565402D01*
X178104726Y-132564600D01*
X177255765Y-132915384D01*
X176605666Y-133564349D01*
X176253402Y-134412697D01*
X176252600Y-135331274D01*
X149752000Y-135331274D01*
X149752000Y-130563676D01*
X149798688Y-130517070D01*
X149924856Y-130213222D01*
X149925143Y-129884221D01*
X149799505Y-129580154D01*
X149567070Y-129347312D01*
X149263222Y-129221144D01*
X148934221Y-129220857D01*
X148630154Y-129346495D01*
X148397312Y-129578930D01*
X148271144Y-129882778D01*
X148270857Y-130211779D01*
X139592000Y-130211779D01*
X139592000Y-129794000D01*
X139542217Y-129543725D01*
X139511038Y-129497062D01*
X139511143Y-129376221D01*
X139385505Y-129072154D01*
X139153070Y-128839312D01*
X138849222Y-128713144D01*
X138520221Y-128712857D01*
X138216154Y-128838495D01*
X137983312Y-129070930D01*
X137857144Y-129374778D01*
X137856857Y-129703779D01*
X129351078Y-129703779D01*
X129351143Y-129630221D01*
X129225505Y-129326154D01*
X128993070Y-129093312D01*
X128689222Y-128967144D01*
X128360221Y-128966857D01*
X128056154Y-129092495D01*
X127823312Y-129324930D01*
X127697144Y-129628778D01*
X127696857Y-129957779D01*
X120385624Y-129957779D01*
X120588688Y-129755070D01*
X120714856Y-129451222D01*
X120715143Y-129122221D01*
X120589505Y-128818154D01*
X120436000Y-128664380D01*
X120436000Y-127254000D01*
X176480771Y-127254000D01*
X176598225Y-127844481D01*
X176882504Y-128269935D01*
X176842706Y-128277423D01*
X176663340Y-128392842D01*
X176543010Y-128568951D01*
X176500676Y-128778000D01*
X176500676Y-130810000D01*
X176537423Y-131005294D01*
X176652842Y-131184660D01*
X176828951Y-131304990D01*
X177038000Y-131347324D01*
X179070000Y-131347324D01*
X179265294Y-131310577D01*
X179444660Y-131195158D01*
X179564990Y-131019049D01*
X179607324Y-130810000D01*
X179607324Y-128778000D01*
X179570577Y-128582706D01*
X179455158Y-128403340D01*
X179279049Y-128283010D01*
X179224183Y-128271899D01*
X179509775Y-127844481D01*
X179627229Y-127254000D01*
X179509775Y-126663519D01*
X179175295Y-126162934D01*
X178674710Y-125828454D01*
X178084229Y-125711000D01*
X178023771Y-125711000D01*
X177433290Y-125828454D01*
X176932705Y-126162934D01*
X176598225Y-126663519D01*
X176480771Y-127254000D01*
X120436000Y-127254000D01*
X120436000Y-126717082D01*
X120460856Y-126657222D01*
X120461143Y-126328221D01*
X120335505Y-126024154D01*
X120103070Y-125791312D01*
X119799222Y-125665144D01*
X119470221Y-125664857D01*
X119166154Y-125790495D01*
X118933312Y-126022930D01*
X118807144Y-126326778D01*
X118806857Y-126655779D01*
X115389600Y-126655779D01*
X115389600Y-123353779D01*
X128458857Y-123353779D01*
X128584495Y-123657846D01*
X128816930Y-123890688D01*
X129120778Y-124016856D01*
X129449779Y-124017143D01*
X129753846Y-123891505D01*
X129801434Y-123844000D01*
X139146499Y-123844000D01*
X138999312Y-123990930D01*
X138873144Y-124294778D01*
X138872857Y-124623779D01*
X138998495Y-124927846D01*
X139230930Y-125160688D01*
X139534778Y-125286856D01*
X139602019Y-125286915D01*
X139999552Y-125684448D01*
X140211725Y-125826217D01*
X140462000Y-125876000D01*
X164846000Y-125876000D01*
X165096275Y-125826217D01*
X165308448Y-125684448D01*
X165450217Y-125472275D01*
X165500000Y-125222000D01*
X165450217Y-124971725D01*
X165419038Y-124925062D01*
X165419143Y-124804221D01*
X165293505Y-124500154D01*
X165061070Y-124267312D01*
X164757222Y-124141144D01*
X164428221Y-124140857D01*
X164124154Y-124266495D01*
X163891312Y-124498930D01*
X163862632Y-124568000D01*
X162624906Y-124568000D01*
X162625143Y-124296221D01*
X162499505Y-123992154D01*
X162267070Y-123759312D01*
X161963222Y-123633144D01*
X161634221Y-123632857D01*
X161330154Y-123758495D01*
X161282566Y-123806000D01*
X160592906Y-123806000D01*
X160593143Y-123534221D01*
X160533963Y-123390996D01*
X160552160Y-123387376D01*
X161003303Y-123085932D01*
X161290000Y-122656859D01*
X161576697Y-123085932D01*
X162027840Y-123387376D01*
X162560000Y-123493229D01*
X163092160Y-123387376D01*
X163543303Y-123085932D01*
X163830000Y-122656859D01*
X164116697Y-123085932D01*
X164567840Y-123387376D01*
X165100000Y-123493229D01*
X165632160Y-123387376D01*
X166083303Y-123085932D01*
X166370000Y-122656859D01*
X166656697Y-123085932D01*
X167107840Y-123387376D01*
X167640000Y-123493229D01*
X168172160Y-123387376D01*
X168623303Y-123085932D01*
X168910000Y-122656859D01*
X169196697Y-123085932D01*
X169647840Y-123387376D01*
X170180000Y-123493229D01*
X170712160Y-123387376D01*
X171163303Y-123085932D01*
X171450000Y-122656859D01*
X171736697Y-123085932D01*
X172187840Y-123387376D01*
X172720000Y-123493229D01*
X173252160Y-123387376D01*
X173703303Y-123085932D01*
X173990000Y-122656859D01*
X174276697Y-123085932D01*
X174727840Y-123387376D01*
X175260000Y-123493229D01*
X175792160Y-123387376D01*
X176243303Y-123085932D01*
X176344440Y-122934569D01*
X176344443Y-122934577D01*
X176785182Y-123425965D01*
X177380417Y-123711285D01*
X177410843Y-123717601D01*
X177673000Y-123550805D01*
X177673000Y-122047000D01*
X177927000Y-122047000D01*
X177927000Y-123550805D01*
X178189157Y-123717601D01*
X178219583Y-123711285D01*
X178814818Y-123425965D01*
X179255557Y-122934577D01*
X179474700Y-122311930D01*
X179284802Y-122047000D01*
X177927000Y-122047000D01*
X177673000Y-122047000D01*
X177653000Y-122047000D01*
X177653000Y-121793000D01*
X177673000Y-121793000D01*
X177673000Y-120289195D01*
X177927000Y-120289195D01*
X177927000Y-121793000D01*
X179284802Y-121793000D01*
X179474700Y-121528070D01*
X179255557Y-120905423D01*
X178814818Y-120414035D01*
X178219583Y-120128715D01*
X178189157Y-120122399D01*
X177927000Y-120289195D01*
X177673000Y-120289195D01*
X177410843Y-120122399D01*
X177380417Y-120128715D01*
X176785182Y-120414035D01*
X176344443Y-120905423D01*
X176344440Y-120905431D01*
X176243303Y-120754068D01*
X175792160Y-120452624D01*
X175260000Y-120346771D01*
X174727840Y-120452624D01*
X174276697Y-120754068D01*
X173990000Y-121183141D01*
X173703303Y-120754068D01*
X173252160Y-120452624D01*
X172720000Y-120346771D01*
X172187840Y-120452624D01*
X171736697Y-120754068D01*
X171450000Y-121183141D01*
X171163303Y-120754068D01*
X170712160Y-120452624D01*
X170180000Y-120346771D01*
X169647840Y-120452624D01*
X169196697Y-120754068D01*
X168910000Y-121183141D01*
X168623303Y-120754068D01*
X168172160Y-120452624D01*
X167640000Y-120346771D01*
X167107840Y-120452624D01*
X166656697Y-120754068D01*
X166370000Y-121183141D01*
X166083303Y-120754068D01*
X165632160Y-120452624D01*
X165100000Y-120346771D01*
X164567840Y-120452624D01*
X164116697Y-120754068D01*
X163830000Y-121183141D01*
X163543303Y-120754068D01*
X163092160Y-120452624D01*
X162560000Y-120346771D01*
X162027840Y-120452624D01*
X161576697Y-120754068D01*
X161290000Y-121183141D01*
X161003303Y-120754068D01*
X160552160Y-120452624D01*
X160020000Y-120346771D01*
X159487840Y-120452624D01*
X159036697Y-120754068D01*
X158750000Y-121183141D01*
X158463303Y-120754068D01*
X158012160Y-120452624D01*
X157480000Y-120346771D01*
X156947840Y-120452624D01*
X156496697Y-120754068D01*
X156210000Y-121183141D01*
X155923303Y-120754068D01*
X155472160Y-120452624D01*
X154940000Y-120346771D01*
X154407840Y-120452624D01*
X153956697Y-120754068D01*
X153670000Y-121183141D01*
X153383303Y-120754068D01*
X152932160Y-120452624D01*
X152400000Y-120346771D01*
X151867840Y-120452624D01*
X151416697Y-120754068D01*
X151130000Y-121183141D01*
X150843303Y-120754068D01*
X150392160Y-120452624D01*
X149860000Y-120346771D01*
X149327840Y-120452624D01*
X148876697Y-120754068D01*
X148590000Y-121183141D01*
X148303303Y-120754068D01*
X147852160Y-120452624D01*
X147320000Y-120346771D01*
X146787840Y-120452624D01*
X146446300Y-120680834D01*
X146344697Y-120435542D01*
X146112058Y-120202903D01*
X145808100Y-120077000D01*
X145113750Y-120077000D01*
X144907000Y-120283750D01*
X144907000Y-121793000D01*
X144927000Y-121793000D01*
X144927000Y-122047000D01*
X144907000Y-122047000D01*
X144907000Y-122067000D01*
X144653000Y-122067000D01*
X144653000Y-122047000D01*
X143296150Y-122047000D01*
X143089400Y-122253750D01*
X143089400Y-123044000D01*
X142510896Y-123044000D01*
X140924448Y-121457552D01*
X140712275Y-121315783D01*
X140462000Y-121266000D01*
X139453676Y-121266000D01*
X139407070Y-121219312D01*
X139103222Y-121093144D01*
X138774221Y-121092857D01*
X138470154Y-121218495D01*
X138237312Y-121450930D01*
X138111144Y-121754778D01*
X138110857Y-122083779D01*
X138236495Y-122387846D01*
X138384390Y-122536000D01*
X129801676Y-122536000D01*
X129755070Y-122489312D01*
X129451222Y-122363144D01*
X129122221Y-122362857D01*
X128818154Y-122488495D01*
X128585312Y-122720930D01*
X128459144Y-123024778D01*
X128458857Y-123353779D01*
X115389600Y-123353779D01*
X115389600Y-120739499D01*
X143089400Y-120739499D01*
X143089400Y-121586250D01*
X143296150Y-121793000D01*
X144653000Y-121793000D01*
X144653000Y-120283750D01*
X144446250Y-120077000D01*
X143751900Y-120077000D01*
X143447942Y-120202903D01*
X143215303Y-120435542D01*
X143089400Y-120739499D01*
X115389600Y-120739499D01*
X115389600Y-119761000D01*
X182935600Y-119761000D01*
X182935600Y-138335600D01*
M02*
