M48
;DRILL file {KiCad 0.201508090901+6074~28~ubuntu14.04.1-product} date Mo 10 Aug 2015 18:51:58 CEST
;FORMAT={-:-/ absolute / metric / decimal}
FMAT,2
METRIC,TZ
T1C0.400
T2C1.016
T3C3.048
%
G90
G05
M71
T1
X118.72Y-92.392
X119.304Y-133.858
X119.634Y-126.492
X119.888Y-129.286
X123.952Y-115.062
X124.422Y-129.591
X124.714Y-93.98
X125.057Y-134.201
X126.746Y-105.41
X127.914Y-92.431
X128.524Y-129.794
X128.524Y-137.414
X129.134Y-96.698
X129.134Y-99.047
X129.222Y-100.749
X129.286Y-123.19
X129.54Y-103.632
X129.921Y-93.294
X130.01Y-129.222
X130.34Y-133.833
X130.81Y-103.124
X131.064Y-115.062
X131.204Y-96.723
X131.343Y-100.762
X131.432Y-99.098
X132.334Y-106.934
X132.829Y-96.761
X132.855Y-99.022
X132.969Y-100.787
X134.645Y-129.527
X135.128Y-99.568
X135.344Y-134.506
X135.636Y-96.774
X138.684Y-100.33
X138.684Y-129.54
X138.938Y-121.92
X138.938Y-137.16
X139.7Y-124.46
X140.005Y-128.918
X140.449Y-133.782
X141.224Y-101.6
X141.478Y-95.758
X141.478Y-100.33
X141.986Y-106.68
X142.24Y-111.76
X142.748Y-103.632
X143.256Y-111.76
X143.764Y-105.918
X143.764Y-107.442
X144.272Y-104.902
X144.78Y-103.378
X145.034Y-102.362
X145.034Y-129.451
X145.034Y-134.087
X145.796Y-105.156
X147.777Y-91.643
X149.098Y-130.048
X149.098Y-137.16
X151.13Y-109.22
X151.46Y-91.694
X151.638Y-107.95
X151.638Y-111.76
X152.248Y-90.475
X153.505Y-95.441
X154.432Y-110.236
X156.972Y-107.442
X157.48Y-104.14
X158.242Y-107.442
X159.004Y-103.632
X159.258Y-107.442
X159.766Y-123.698
X161.036Y-112.014
X161.798Y-124.46
X162.052Y-115.062
X163.322Y-105.41
X164.592Y-114.808
X164.592Y-124.968
X165.544Y-129.972
X165.608Y-109.982
X167.107Y-94.64
X170.942Y-111.252
X171.196Y-113.03
X172.212Y-78.486
X172.72Y-107.95
X172.86Y-95.555
X172.974Y-99.822
X174.244Y-128.778
X179.235Y-99.327
X180.594Y-79.756
X181.381Y-105.867
T2
X122.174Y-96.774
X122.174Y-99.314
X122.174Y-101.854
X122.174Y-104.394
X122.174Y-106.934
X124.46Y-116.84
X124.714Y-96.774
X124.714Y-99.314
X124.714Y-101.854
X124.714Y-104.394
X124.714Y-106.934
X127.Y-116.84
X129.54Y-116.84
X132.08Y-116.84
X134.62Y-116.84
X135.128Y-80.01
X137.16Y-116.84
X137.668Y-80.01
X139.7Y-116.84
X140.208Y-80.01
X142.24Y-116.84
X142.748Y-80.01
X144.78Y-116.84
X144.78Y-121.92
X145.288Y-80.01
X147.32Y-116.84
X147.32Y-121.92
X149.86Y-116.84
X149.86Y-121.92
X152.4Y-116.84
X152.4Y-121.92
X154.94Y-116.84
X154.94Y-121.92
X157.48Y-116.84
X157.48Y-121.92
X160.02Y-116.84
X160.02Y-121.92
X162.56Y-116.84
X162.56Y-121.92
X165.1Y-116.84
X165.1Y-121.92
X166.116Y-90.564
X167.64Y-116.84
X167.64Y-121.92
X170.18Y-116.84
X170.18Y-121.92
X172.212Y-80.518
X172.72Y-116.84
X172.72Y-121.92
X174.752Y-80.518
X175.26Y-116.84
X175.26Y-121.92
X177.8Y-116.84
X177.8Y-121.92
X178.054Y-127.254
X178.054Y-129.794
T3
X119.634Y-79.756
X178.562Y-134.874
X179.578Y-112.776
T0
M30
