<?xml version="1.0" encoding="UTF-8" standalone="no"?>
<svg xmlns:dc="http://purl.org/dc/elements/1.1/" xmlns:cc="http://web.resource.org/cc/" xmlns:rdf="http://www.w3.org/1999/02/22-rdf-syntax-ns#" xmlns:svg="http://www.w3.org/2000/svg" xmlns="http://www.w3.org/2000/svg" xmlns:sodipodi="http://sodipodi.sourceforge.net/DTD/sodipodi-0.dtd" xmlns:inkscape="http://www.inkscape.org/namespaces/inkscape" width="160.42566" height="356.9118" viewBox="0 0 244 381" id="svg2" sodipodi:version="0.32" inkscape:version="0.44+devel" sodipodi:docname="liftarn_Electrical_switch.svg" inkscape:output_extension="org.inkscape.output.svg.inkscape" sodipodi:docbase="C:\Documents and Settings\Molumen\Desktop" sodipodi:modified="true" version="1.0">
  <metadata id="metadata41">
    <rdf:RDF>
      <cc:Work rdf:about="">
        <dc:format>image/svg+xml</dc:format>
        <dc:type rdf:resource="http://purl.org/dc/dcmitype/StillImage"/>
      </cc:Work>
    </rdf:RDF>
  </metadata>
  <defs id="defs39"/>
  <sodipodi:namedview inkscape:window-height="1144" inkscape:window-width="1600" inkscape:pageshadow="2" inkscape:pageopacity="0.0" guidetolerance="10.0" gridtolerance="10.0" objecttolerance="10.0" borderopacity="1.0" bordercolor="#666666" pagecolor="#ffffff" id="base" inkscape:zoom="1.4948229" inkscape:cx="404.88455" inkscape:cy="158.48096" inkscape:window-x="-4" inkscape:window-y="-4" inkscape:current-layer="svg2"/>
  <path style="fill:#000000" d="M 184.56303,458.58683 C 196.12207,448.94512 182.04289,428.585 186.71299,414.66189 C 184.29948,378.96969 181.0935,343.05513 184.72503,307.36284 C 186.72032,255.2581 188.35436,203.07456 194.40346,151.2465 C 197.92402,106.24203 212.6456,63.238518 218.94582,18.664521 C 225.07597,-6.1606787 230.67446,-31.227444 240.75565,-54.888217 C 238.8486,-63.278024 250.46457,-84.199767 232.77381,-75.066363 C 204.86413,-63.787728 180.28545,-46.248668 152.79091,-34.234729 C 109.94132,-13.859409 67.292412,6.9377333 24.319033,27.052558 C 20.904371,53.081337 21.437713,79.485882 19.80617,105.6139 C 28.341093,127.14093 -9.6045664,126.63671 5.4366696,148.09661 C 18.817431,162.50917 24.760604,181.04646 23.139493,200.54052 C 22.304311,237.43367 19.024893,274.2312 19.987797,311.1633 C 19.970583,330.05606 12.51328,353.28554 27.924708,368.13469 C 44.170495,373.62873 60.133609,380.89822 75.034347,390.09189 C 101.20198,406.29493 128.18159,421.16079 154.22147,437.53046 C 164.27517,444.68239 172.72814,454.17169 184.56303,458.58683 z " id="path4"/>
  <path style="fill:#ffe84f" d="M 178.94043,444.53034 C 174.15469,439.35249 177.17013,431.84273 174.32324,425.66135 C 173.17343,418.78256 172.69585,411.83722 171.91218,404.9222 C 172.43388,395.17248 169.48685,385.84978 170.50653,376.03877 C 170.48694,367.88974 168.19018,360.02105 169.10089,351.7575 C 169.30922,337.59192 168.28652,323.30445 170.50653,309.33806 C 169.86365,300.45397 171.20773,291.76663 171.91218,283.01595 C 171.43061,273.95145 174.3334,265.3036 173.31783,256.17336 C 175.33335,249.72045 174.13432,242.94924 176.12913,236.49427 C 172.20022,243.59131 173.11434,232.83543 176.12913,232.66256 C 176.71877,222.23842 174.91686,211.42618 177.09719,201.26017 C 178.50324,194.98354 176.14965,187.95534 178.94043,182.05919 C 178.32811,176.43825 179.54317,171.24869 180.34608,165.96185 C 179.38584,159.25362 182.54395,153.2137 181.75173,146.53273 C 183.50613,141.70004 184.54531,136.6985 184.56303,131.45582 C 185.28876,125.97385 186.82861,120.76229 187.37432,115.35848 C 188.3773,104.34618 193.45265,93.835198 193.49189,82.704256 C 196.35648,74.135461 195.48703,65.106991 198.61952,56.57119 C 198.13614,48.219244 202.11655,40.416815 201.92579,32.100893 C 204.90704,24.081633 203.47613,15.566742 206.63772,7.630596 C 208.60771,-0.67321713 211.37511,-9.0182945 211.7267,-17.435258 C 217.34227,-27.989742 216.92238,-40.776887 222.76304,-51.248099 C 223.63441,-56.369685 229.96324,-65.82721 221.1099,-58.692038 C 214.56864,-56.906779 211.31038,-53.10399 205.7942,-50.331361 C 184.12354,-39.370726 161.02623,-30.932914 140.07522,-18.877516 C 134.91275,-16.026501 129.12755,-15.813424 124.12012,-12.305617 C 117.69418,-9.0433319 111.33248,-5.5088736 104.51425,-3.9083312 C 97.089137,-0.32483121 89.864508,4.1079465 82.023867,5.9312126 C 73.059748,10.348996 64.556063,17.155124 54.608115,18.618663 C 50.236265,21.169533 44.940425,23.212627 40.465274,24.962808 C 36.428772,27.985115 30.626467,28.426655 28.53598,32.675155 C 28.240002,43.253517 29.1252,54.110719 28.079633,64.51212 C 25.288448,72.508324 29.123117,82.068692 25.724682,89.921533 C 26.162626,97.693845 23.274635,104.92643 24.319033,112.79715 C 23.828774,119.00256 23.240913,125.31638 31.422743,121.88893 C 37.957284,121.20109 44.491827,120.51324 51.026366,119.8254 C 52.26747,114.38517 52.829379,108.78461 52.432016,102.95761 C 52.588366,96.975755 52.651915,91.015817 51.026366,85.454619 C 51.635968,79.789235 50.497449,74.536535 49.620717,69.222029 C 49.090478,63.363649 50.03641,57.853752 51.026366,52.354242 C 51.895451,44.367759 54.842704,35.866286 61.587458,30.547958 C 66.227604,26.579682 71.596678,26.029906 77.049598,24.925361 C 86.098549,24.04456 72.477275,28.14357 70.705454,31.269505 C 63.742782,34.819637 57.766988,41.864954 59.460261,50.17814 C 58.402988,58.327828 57.586517,66.507158 58.054612,74.844625 C 58.054612,92.18096 58.054612,109.51731 58.054612,126.85364 C 54.671032,129.51946 63.501488,136.7984 64.964151,141.11003 C 68.934786,147.3406 72.859429,153.60431 77.7337,159.18357 C 82.033131,153.69686 74.611697,149.4858 71.352109,148.58503 C 69.965914,144.1792 80.598497,145.22462 80.544998,150.74968 C 85.099259,154.81494 81.419733,161.02352 83.393743,164.84362 C 88.867368,171.4225 84.282366,156.1317 84.993653,152.35621 C 83.288769,143.947 90.023149,147.06953 92.672868,152.90726 C 94.781398,151.19403 90.765655,141.5692 95.323037,138.78294 C 100.06637,137.07014 98.624499,146.64538 98.818436,150.36445 C 99.982665,155.72462 97.081869,160.80129 98.325475,165.22591 C 98.814304,171.63099 91.231811,160.64182 89.662994,158.46202 C 89.612798,153.22857 84.242656,170.80936 91.012684,167.78695 C 96.144119,169.57316 105.53437,165.83575 106.75937,172.25416 C 107.11486,177.56683 109.20506,181.76076 108.65798,187.29655 C 108.1156,192.56084 109.08963,197.46716 110.06363,202.37346 C 109.76047,213.07855 110.67067,224.07006 109.60728,234.59566 C 106.87032,242.13613 110.61058,251.20564 107.25233,258.59943 C 109.3077,265.38771 104.66584,268.73604 98.183238,267.41855 C 91.522991,267.56962 84.876688,267.63479 78.50415,266.01291 C 73.005602,265.85172 67.407829,265.0918 62.34478,263.23821 C 55.767312,263.73192 50.260274,259.09155 43.99812,257.57901 C 42.973679,252.54153 40.061431,248.28601 38.375524,243.52252 C 37.098052,238.63787 35.634295,233.83039 35.564226,228.44561 C 35.512387,223.2202 35.109365,216.31381 38.795262,213.0912 C 39.687977,208.75557 33.900363,202.12158 32.323036,196.93615 C 30.379481,194.4703 25.53825,179.17952 25.724682,186.14087 C 25.119694,192.40623 26.322227,198.37827 27.130331,204.41431 C 26.647441,216.25414 28.367224,228.4514 25.724682,239.94077 C 25.724682,278.61867 25.724682,317.29655 25.724682,355.97445 C 27.4167,360.89111 33.229537,362.11687 38.375524,361.59705 C 44.357812,368.54537 54.358879,367.66269 61.587458,372.15814 C 70.226535,379.3862 82.443313,381.58675 90.75084,389.31692 C 102.98737,397.20195 116.44031,403.04577 129.05862,410.11066 C 133.59661,412.99283 139.48223,414.13737 143.7992,417.82301 C 148.27643,420.55871 153.88651,421.78368 157.85569,426.2569 C 161.95281,430.78998 168.42602,432.70171 171.22808,438.22365 C 174.18775,439.87649 176.66163,441.90274 178.94043,444.53034 z " id="path6"/>
  <path style="fill:#000000" d="M 150.82745,403.76652 C 148.52772,398.15811 143.57992,394.29698 140.15167,389.45538 C 136.97557,386.86408 133.73456,383.56575 133.61555,379.20135 C 131.3024,367.12677 133.18501,354.81171 132.50953,342.63339 C 133.69027,338.10622 130.36086,333.84173 131.2541,329.30816 C 131.02591,325.6971 131.36759,321.95809 131.17433,318.44107 C 128.69762,317.81673 129.99348,322.55322 129.70988,324.24265 C 129.97646,327.69401 130.05857,331.25409 128.79343,334.52919 C 127.7761,340.59815 128.96936,346.93499 127.00243,352.86068 C 126.19088,359.70057 128.80906,366.35373 128.59295,373.18395 C 129.43219,380.05867 132.47069,386.46623 135.87516,392.41326 C 138.81728,396.87105 143.0669,400.31318 147.56194,403.10072 C 148.56607,403.602 149.70058,403.89741 150.82745,403.76652 z " id="path10"/>
  <path style="fill:#000000" d="M 111.46928,377.05919 C 111.33628,373.63566 107.83486,371.97497 105.14362,370.70304 C 100.66151,368.56926 97.143395,364.9698 93.248285,361.99006 C 91.346189,360.27619 90.350174,357.75574 90.401016,355.21796 C 89.668293,348.51276 91.694733,341.93014 91.910852,335.2575 C 92.547512,331.7524 93.039982,328.05346 91.808731,324.62146 C 91.26088,319.83236 92.708009,314.9004 91.117419,310.21732 C 90.792292,308.17123 89.415698,304.07884 86.796144,306.30931 C 84.413893,308.90421 86.290589,312.4912 86.152554,315.54517 C 86.52179,325.15936 85.70657,334.77494 85.776487,344.3831 C 85.35222,347.42675 84.367689,350.49963 85.171411,353.57474 C 85.71371,356.00993 86.148098,358.52818 87.108761,360.82685 C 89.436319,364.73652 94.025763,366.23924 97.30905,369.15071 C 101.15942,371.98932 104.93756,375.00629 109.27471,377.08473 C 109.99666,377.23271 110.75143,377.23017 111.46928,377.05919 z " id="path12"/>
  <path style="fill:#000000" d="M 66.488507,360.1914 C 68.855775,362.75288 71.564601,356.55203 68.161806,356.3856 C 62.264264,355.79919 56.397745,354.08434 51.430997,350.78807 C 48.617477,349.44837 47.375797,346.03382 48.109321,343.10236 C 48.37534,336.23302 48.126456,329.35449 48.214323,322.48104 C 48.212187,315.84062 48.208616,309.2002 48.215068,302.55978 C 46.136042,301.22242 47.13657,298.517 46.889654,296.49837 C 46.767854,293.84112 44.342266,295.71145 45.08993,297.45782 C 45.975152,299.92957 45.383486,302.46456 44.838038,304.93335 C 44.159489,307.72325 43.75538,310.59144 44.025699,313.46176 C 44.041836,322.57915 43.986084,331.69658 44.032503,340.81393 C 44.805596,343.70181 45.949653,346.66029 45.332883,349.69634 C 44.922307,352.65502 46.762175,355.64491 49.733226,356.29997 C 53.132155,357.42966 56.745376,357.68813 60.170901,358.73135 C 62.276142,359.22073 64.38082,359.71262 66.488507,360.1914 z " id="path14"/>
  <ellipse style="fill:#000000" cx="134" cy="257" rx="5" ry="8" id="ellipse16" sodipodi:cx="134" sodipodi:cy="257" sodipodi:rx="5" sodipodi:ry="8" transform="matrix(1.4056491,0,0,1.4056491,-96.566789,-76.965476)"/>
  <ellipse style="fill:#000000" cx="110" cy="256" rx="4" ry="7" id="ellipse18" sodipodi:cx="110" sodipodi:cy="256" sodipodi:rx="4" sodipodi:ry="7" transform="matrix(1.4056491,0,0,1.4056491,-96.566789,-76.965476)"/>
  <ellipse style="fill:#000000" cx="121" cy="256" rx="4" ry="6" id="ellipse20" sodipodi:cx="121" sodipodi:cy="256" sodipodi:rx="4" sodipodi:ry="6" transform="matrix(1.4056491,0,0,1.4056491,-96.566789,-76.965476)"/>
  <path style="fill:#ffffff" d="M 39.969314,257.25829 L 39.969314,255.25829 L 39.969314,256.25829 L 39.969314,257.25829 z " id="path22"/>
  <path style="fill:#ffffff" d="M 87.573244,260.39031 C 89.965138,260.65153 90.349007,257.44217 89.159097,255.96624 C 86.9049,254.05592 85.201168,251.53237 83.698642,248.98267 C 81.450644,245.28884 79.948202,241.21288 78.981298,237.00935 C 78.393568,234.65882 77.7722,232.31342 77.683209,229.88247 C 77.464897,227.38134 76.609616,224.99865 76.400217,222.5041 C 76.132525,219.32078 72.616743,219.09821 70.151375,219.29301 C 64.881217,219.29631 59.626817,218.75165 54.358163,218.61436 C 51.574724,218.45921 48.759898,218.46457 46.00117,218.17309 C 43.67356,218.85107 43.936148,221.8883 43.958823,223.80112 C 44.07113,227.94606 43.958699,232.09418 44.001072,236.24228 C 45.179386,237.95889 45.15861,240.23322 45.793078,242.20874 C 47.065177,243.99067 46.848299,246.33612 47.612677,248.35794 C 48.363744,250.3499 48.808604,252.87779 50.668643,254.10714 C 54.803824,256.36062 59.720109,255.45867 64.117331,256.7791 C 71.936648,257.97838 79.753182,259.19583 87.573244,260.39031 z " id="path24"/>
  <path style="fill:#ffffff" d="M 101.62973,258.98466 C 100.91821,253.38734 102.76263,247.93173 103.00518,242.41582 C 103.07172,227.79121 103.01599,213.16643 103.03538,198.54175 C 105.658,193.37512 101.10666,187.72965 103.41384,182.39535 C 104.54154,177.01515 98.047143,176.19 96.052288,180.53637 C 93.550991,184.68149 88.261787,184.89675 86.68507,179.99294 C 82.983574,176.26422 79.397103,172.46372 76.587252,168.01158 C 73.611324,163.71859 70.596615,159.43062 67.478997,155.25889 C 64.662203,150.11342 62.063116,144.71386 57.881928,140.51426 C 56.738924,137.50197 52.92717,131.95175 51.179442,137.8599 C 48.863663,142.61599 53.407381,147.30601 54.873698,151.69468 C 58.294331,155.73968 60.081699,160.64147 62.634034,165.17847 C 66.004471,170.29685 66.342052,176.71089 70.567954,181.43206 C 72.944948,186.32934 75.800693,191.07252 77.593585,196.22692 C 78.83147,202.10462 82.924172,207.45889 82.484709,213.84714 C 84.893528,219.99756 81.74992,226.87626 84.445463,232.96699 C 85.367527,240.61585 87.793804,248.80762 94.306809,253.56317 C 96.488812,255.7508 99.374624,257.12563 101.62973,258.98466 z " id="path26"/>
  <path style="fill:#ffffff" d="M 58.054612,211.19259 C 64.614313,211.19259 71.173999,211.19259 77.7337,211.19259 C 76.81224,206.54057 73.438725,203.03167 71.135667,199.06322 C 69.7469,196.17998 68.821828,193.0424 66.884225,190.45525 C 65.10473,186.82012 64.043422,182.75835 61.38541,179.61241 C 60.118021,175.71193 57.788227,172.29625 55.964454,168.65389 C 55.117522,164.85201 51.868435,162.08981 51.079697,158.26623 C 49.066639,154.75114 47.036164,151.20598 45.797126,147.33396 C 43.803556,144.00097 39.570728,145.65137 36.480452,145.81051 C 28.678249,146.5198 20.876043,147.22907 13.07384,147.93838 C 15.02389,151.55776 15.819656,155.78435 18.484135,159.00692 C 20.337192,162.54274 22.947096,165.70092 24.101912,169.5793 C 26.270265,172.45955 28.038619,175.4956 29.51994,178.77878 C 31.552059,182.22031 32.669543,185.95124 35.35611,188.9698 C 37.025737,192.2904 38.637117,195.62115 40.421361,198.89038 C 41.845076,202.40614 43.903849,205.62427 45.497512,209.12142 C 47.24801,210.74646 50.222363,209.97676 52.495157,210.57488 C 54.348309,210.78078 56.20146,210.98669 58.054612,211.19259 z " id="path28"/>
  <ellipse style="fill:#ffffff" cx="88" cy="150" rx="13" ry="4" id="ellipse30" sodipodi:cx="88" sodipodi:cy="150" sodipodi:rx="13" sodipodi:ry="4" transform="matrix(1.4056491,0,0,1.4056491,-96.566789,-76.965476)"/>
  <path style="fill:#000000" d="M 94.601489,138.09884 C 97.243575,105.31194 93.392547,72.447305 94.909087,39.632679 C 92.680121,34.284616 95.614864,27.224279 101.26376,25.504054 C 107.09928,21.945524 112.70573,18.029136 118.49752,14.401716 C 102.53416,12.114331 86.881819,27.597423 88.995634,43.584721 C 88.386088,64.651842 90.167847,85.732629 88.935669,106.78966 C 90.402534,116.24861 89.848202,125.98585 92.360603,135.28518 C 92.905194,136.36095 93.643581,137.35568 94.601489,138.09884 z " id="path32"/>
  <path style="fill:#000000" d="M 133.95966,135.28754 C 133.94929,120.14626 139.63028,105.40106 137.8909,90.198938 C 139.30231,78.245158 140.37507,66.185574 139.5992,54.149037 C 140.36663,39.858512 140.9368,25.489629 143.25264,11.354186 C 144.70407,4.6104886 150.98447,1.1557812 157.04799,-0.39473274 C 162.63781,-3.0783235 158.1417,-8.967223 153.49926,-6.0346932 C 147.37874,-3.7483374 142.49559,1.3942748 139.56525,7.133349 C 134.55358,18.277781 135.64871,30.79211 135.32111,42.683253 C 135.54604,57.038762 135.91488,71.467427 134.12802,85.737549 C 134.4619,101.22675 131.40162,116.63938 132.71204,132.1323 C 132.73007,133.06162 132.41055,139.58593 133.95966,135.28754 z " id="path34"/>
  <path style="fill:#000000" d="M 51.969314,126.25829 L 52.969314,126.25829 L 51.969314,126.25829 L 50.969314,126.25829 L 51.969314,126.25829 z " id="path36"/>
</svg>